{
	"asset":{
		"copyright":"nah ",
		"generator":"Khronos glTF Blender I/O v4.5.49",
		"version":"2.0"
	},
	"extensionsUsed":[
		"KHR_materials_unlit"
	],
	"scene":0,
	"scenes":[
		{
			"name":"Scene",
			"nodes":[
				7,
				11,
				16,
				21,
				27,
				32,
				36,
				40,
				44,
				48,
				53,
				58
			]
		}
	],
	"nodes":[
		{
			"mesh":0,
			"name":"nes_bldg_smb11_zeimport_poly5_XSIPOLYCLS.ground1_0.001",
			"translation":[
				-74.69103240966797,
				17.117502212524414,
				-4.696143605542602e-06
			]
		},
		{
			"mesh":1,
			"name":"nes_bldg_smb11_zeimport_poly5_XSIPOLYCLS.ground1_0.002",
			"rotation":[
				0,
				0,
				-0.7071068286895752,
				0.7071067094802856
			],
			"translation":[
				5.024247169494629,
				11.228632926940918,
				-3.736724920599954e-06
			]
		},
		{
			"mesh":2,
			"name":"nes_bldg_smb11_zeimport_poly5_XSIPOLYCLS.ground1_0.003",
			"translation":[
				-20.520217895507812,
				-12.924585342407227,
				0
			]
		},
		{
			"mesh":3,
			"name":"nes_bldg_smb11_zeimport_poly5_XSIPOLYCLS.ground1_0.004"
		},
		{
			"children":[
				0,
				1,
				2,
				3
			],
			"name":"nes_bldg_smb11.001",
			"scale":[
				100,
				99.99999237060547,
				99.99999237060547
			],
			"translation":[
				-3.0517578125e-05,
				0,
				0.000244140625
			]
		},
		{
			"children":[
				4
			],
			"name":"RootNode.001",
			"translation":[
				-3.0517578125e-05,
				0,
				0.000244140625
			]
		},
		{
			"children":[
				5
			],
			"name":"supermariobros11.fbx.001",
			"rotation":[
				0.70710688829422,
				0,
				0,
				0.7071066498756409
			],
			"scale":[
				0.009999999776482582,
				0.010000000707805157,
				0.010000000707805157
			]
		},
		{
			"children":[
				6
			],
			"name":"Sketchfab_model.001",
			"rotation":[
				-0.70710688829422,
				0,
				0,
				0.7071066498756409
			],
			"translation":[
				4.2691650390625,
				0,
				-20.63702392578125
			]
		},
		{
			"name":"nes_bldg_smb11.002",
			"scale":[
				100,
				99.99999237060547,
				99.99999237060547
			],
			"translation":[
				-3.0517578125e-05,
				0,
				0
			]
		},
		{
			"children":[
				8
			],
			"name":"RootNode.002",
			"translation":[
				-3.0517578125e-05,
				0,
				0
			]
		},
		{
			"children":[
				9
			],
			"name":"supermariobros11.fbx.002",
			"rotation":[
				0.70710688829422,
				0,
				0,
				0.7071066498756409
			],
			"scale":[
				0.009999999776482582,
				0.010000000707805157,
				0.010000000707805157
			]
		},
		{
			"children":[
				10
			],
			"name":"Sketchfab_model.002",
			"rotation":[
				-0.70710688829422,
				0,
				0,
				0.7071066498756409
			],
			"translation":[
				4.2691650390625,
				0,
				-20.345870971679688
			]
		},
		{
			"mesh":4,
			"name":"nes_bldg_smb11_zeimport_poly2_XSIPOLYCLS.pipetop1_0.001",
			"rotation":[
				0,
				-0.9999992251396179,
				0,
				0.0012338424567133188
			],
			"translation":[
				-65.91561889648438,
				0,
				7.281684875488281
			]
		},
		{
			"children":[
				12
			],
			"name":"nes_bldg_smb11.003",
			"scale":[
				100,
				99.99999237060547,
				99.99999237060547
			],
			"translation":[
				-3.0517578125e-05,
				0,
				-0.0001220703125
			]
		},
		{
			"children":[
				13
			],
			"name":"RootNode.003",
			"translation":[
				-3.0517578125e-05,
				0,
				-0.0001220703125
			]
		},
		{
			"children":[
				14
			],
			"name":"supermariobros11.fbx.003",
			"rotation":[
				0.70710688829422,
				0,
				0,
				0.7071066498756409
			],
			"scale":[
				0.009999999776482582,
				0.010000000707805157,
				0.010000000707805157
			]
		},
		{
			"children":[
				15
			],
			"name":"Sketchfab_model.003",
			"rotation":[
				-0.70710688829422,
				0,
				0,
				0.7071066498756409
			],
			"translation":[
				4.2691650390625,
				0,
				-20.207290649414062
			]
		},
		{
			"mesh":5,
			"name":"nes_bldg_smb11_zeimport_poly5_XSIPOLYCLS.ground1_0.005",
			"translation":[
				-22.812681198120117,
				-12.924585342407227,
				0
			]
		},
		{
			"children":[
				17
			],
			"name":"nes_bldg_smb11.004",
			"scale":[
				100,
				99.99999237060547,
				99.99999237060547
			],
			"translation":[
				-3.0517578125e-05,
				0,
				0.000244140625
			]
		},
		{
			"children":[
				18
			],
			"name":"RootNode.004",
			"translation":[
				-3.0517578125e-05,
				0,
				0.000244140625
			]
		},
		{
			"children":[
				19
			],
			"name":"supermariobros11.fbx.004",
			"rotation":[
				0.70710688829422,
				0,
				0,
				0.7071066498756409
			],
			"scale":[
				0.009999999776482582,
				0.010000000707805157,
				0.010000000707805157
			]
		},
		{
			"children":[
				20
			],
			"name":"Sketchfab_model.004",
			"rotation":[
				-0.70710688829422,
				0,
				0,
				0.7071066498756409
			],
			"translation":[
				4.2691650390625,
				0,
				-20.63702392578125
			]
		},
		{
			"mesh":6,
			"name":"nes_bldg_smb11_zeimport_poly5_XSIPOLYCLS.ground1_0.006",
			"translation":[
				-78.52204895019531,
				-12.924585342407227,
				0
			]
		},
		{
			"mesh":7,
			"name":"nes_bldg_smb11_zeimport_poly5_XSIPOLYCLS.ground1_0.008",
			"translation":[
				-78.52204895019531,
				-12.924585342407227,
				0
			]
		},
		{
			"children":[
				22,
				23
			],
			"name":"nes_bldg_smb11.005",
			"scale":[
				100,
				99.99999237060547,
				99.99999237060547
			],
			"translation":[
				-3.0517578125e-05,
				0,
				0.000244140625
			]
		},
		{
			"children":[
				24
			],
			"name":"RootNode.005",
			"translation":[
				-3.0517578125e-05,
				0,
				0.000244140625
			]
		},
		{
			"children":[
				25
			],
			"name":"supermariobros11.fbx.005",
			"rotation":[
				0.70710688829422,
				0,
				0,
				0.7071066498756409
			],
			"scale":[
				0.009999999776482582,
				0.010000000707805157,
				0.010000000707805157
			]
		},
		{
			"children":[
				26
			],
			"name":"Sketchfab_model.005",
			"rotation":[
				-0.70710688829422,
				0,
				0,
				0.7071066498756409
			],
			"translation":[
				4.2691650390625,
				15.20354175567627,
				-20.63702392578125
			]
		},
		{
			"mesh":8,
			"name":"nes_bldg_smb11_zeimport_poly5_XSIPOLYCLS.ground1_0.007",
			"translation":[
				-74.69103240966797,
				17.117502212524414,
				-4.696143605542602e-06
			]
		},
		{
			"children":[
				28
			],
			"name":"nes_bldg_smb11.006",
			"scale":[
				100,
				99.99999237060547,
				99.99999237060547
			],
			"translation":[
				0.00048828125,
				0,
				0.000244140625
			]
		},
		{
			"children":[
				29
			],
			"name":"RootNode.006",
			"translation":[
				0.00048828125,
				0,
				0.000244140625
			]
		},
		{
			"children":[
				30
			],
			"name":"supermariobros11.fbx.006",
			"rotation":[
				0.70710688829422,
				0,
				0,
				0.7071066498756409
			],
			"scale":[
				0.009999999776482582,
				0.010000000707805157,
				0.010000000707805157
			]
		},
		{
			"children":[
				31
			],
			"name":"Sketchfab_model.006",
			"rotation":[
				-0.70710688829422,
				0,
				0,
				0.7071066498756409
			],
			"translation":[
				79.0367431640625,
				0,
				-20.63702392578125
			]
		},
		{
			"name":"nes_bldg_smb11.007",
			"scale":[
				100,
				99.99999237060547,
				99.99999237060547
			],
			"translation":[
				-0.000244140625,
				0,
				0
			]
		},
		{
			"children":[
				33
			],
			"name":"RootNode.007",
			"translation":[
				-0.000244140625,
				0,
				0
			]
		},
		{
			"children":[
				34
			],
			"name":"supermariobros11.fbx.007",
			"rotation":[
				0.70710688829422,
				0,
				0,
				0.7071066498756409
			],
			"scale":[
				0.009999999776482582,
				0.010000000707805157,
				0.010000000707805157
			]
		},
		{
			"children":[
				35
			],
			"name":"Sketchfab_model.007",
			"rotation":[
				-0.70710688829422,
				0,
				0,
				0.7071066498756409
			],
			"translation":[
				29.882354736328125,
				0,
				-20.712066650390625
			]
		},
		{
			"name":"nes_bldg_smb11.009",
			"scale":[
				100,
				99.99999237060547,
				99.99999237060547
			]
		},
		{
			"children":[
				37
			],
			"name":"RootNode.009"
		},
		{
			"children":[
				38
			],
			"name":"supermariobros11.fbx.009",
			"rotation":[
				0.70710688829422,
				0,
				0,
				0.7071066498756409
			],
			"scale":[
				0.009999999776482582,
				0.010000000707805157,
				0.010000000707805157
			],
			"translation":[
				-3.814697265625e-06,
				0,
				0
			]
		},
		{
			"children":[
				39
			],
			"name":"Sketchfab_model.009",
			"rotation":[
				-0.70710688829422,
				0,
				0,
				0.7071066498756409
			],
			"translation":[
				52.646697998046875,
				0,
				-20.91533660888672
			]
		},
		{
			"name":"nes_bldg_smb11.010",
			"scale":[
				100,
				99.99999237060547,
				99.99999237060547
			],
			"translation":[
				0.00048828125,
				-6.103515625e-05,
				0
			]
		},
		{
			"children":[
				41
			],
			"name":"RootNode.010",
			"translation":[
				0.00048828125,
				-6.103515625e-05,
				0
			]
		},
		{
			"children":[
				42
			],
			"name":"supermariobros11.fbx.010",
			"rotation":[
				0.70710688829422,
				0,
				0,
				0.7071066498756409
			],
			"scale":[
				0.009999999776482582,
				0.010000000707805157,
				0.010000000707805157
			]
		},
		{
			"children":[
				43
			],
			"name":"Sketchfab_model.010",
			"rotation":[
				-0.70710688829422,
				0,
				0,
				0.7071066498756409
			],
			"translation":[
				59.811614990234375,
				5.420089244842529,
				-20.91533660888672
			]
		},
		{
			"name":"nes_bldg_smb11.011",
			"scale":[
				100,
				99.99999237060547,
				99.99999237060547
			],
			"translation":[
				0,
				-0.0001220703125,
				0
			]
		},
		{
			"children":[
				45
			],
			"name":"RootNode.011",
			"translation":[
				0,
				-0.0001220703125,
				0
			]
		},
		{
			"children":[
				46
			],
			"name":"supermariobros11.fbx.011",
			"rotation":[
				0.70710688829422,
				0,
				0,
				0.7071066498756409
			],
			"scale":[
				0.009999999776482582,
				0.010000000707805157,
				0.010000000707805157
			],
			"translation":[
				-3.814697265625e-06,
				2.3482475626224186e-06,
				0
			]
		},
		{
			"children":[
				47
			],
			"name":"Sketchfab_model.011",
			"rotation":[
				-0.70710688829422,
				0,
				0,
				0.7071066498756409
			],
			"translation":[
				54.762786865234375,
				10.914426803588867,
				-20.91533660888672
			]
		},
		{
			"mesh":9,
			"name":"nes_bldg_smb11_zeimport_poly5_XSIPOLYCLS.ground1_0.010",
			"rotation":[
				0,
				1,
				0,
				0
			],
			"scale":[
				-1,
				-0.9950473308563232,
				-1
			],
			"translation":[
				-73.43295288085938,
				-4.822999477386475,
				-0.33099669218063354
			]
		},
		{
			"children":[
				49
			],
			"name":"nes_bldg_smb11.012",
			"scale":[
				100,
				99.99999237060547,
				99.99999237060547
			],
			"translation":[
				0,
				0,
				0.000244140625
			]
		},
		{
			"children":[
				50
			],
			"name":"RootNode.012",
			"translation":[
				0,
				0,
				0.000244140625
			]
		},
		{
			"children":[
				51
			],
			"name":"supermariobros11.fbx.012",
			"rotation":[
				0.70710688829422,
				0,
				0,
				0.7071066498756409
			],
			"scale":[
				0.009999999776482582,
				0.010000000707805157,
				0.010000000707805157
			]
		},
		{
			"children":[
				52
			],
			"name":"Sketchfab_model.012",
			"rotation":[
				-0.70710688829422,
				0,
				0,
				0.7071066498756409
			],
			"translation":[
				-73.257568359375,
				0.08084685355424881,
				-31.551254272460938
			]
		},
		{
			"mesh":10,
			"name":"nes_bldg_smb11_zeimport_poly5_XSIPOLYCLS.ground1_0.009",
			"rotation":[
				0,
				1,
				0,
				0
			],
			"scale":[
				-1,
				-0.9663482308387756,
				-1
			],
			"translation":[
				-66.56997680664062,
				4.177555561065674,
				10.932608604431152
			]
		},
		{
			"children":[
				54
			],
			"name":"nes_bldg_smb11.013",
			"scale":[
				100,
				99.99999237060547,
				99.99999237060547
			],
			"translation":[
				0,
				0,
				0.000244140625
			]
		},
		{
			"children":[
				55
			],
			"name":"RootNode.013",
			"translation":[
				0,
				0,
				0.000244140625
			]
		},
		{
			"children":[
				56
			],
			"name":"supermariobros11.fbx.013",
			"rotation":[
				0.70710688829422,
				0,
				0,
				0.7071066498756409
			],
			"scale":[
				0.009999999776482582,
				0.010000000707805157,
				0.010000000707805157
			]
		},
		{
			"children":[
				57
			],
			"name":"Sketchfab_model.013",
			"rotation":[
				-0.70710688829422,
				0,
				0,
				0.7071066498756409
			],
			"translation":[
				-73.257568359375,
				0.08084685355424881,
				-31.551254272460938
			]
		}
	],
	"materials":[
		{
			"doubleSided":true,
			"extensions":{
				"KHR_materials_unlit":{}
			},
			"name":"material_0.001",
			"pbrMetallicRoughness":{
				"baseColorTexture":{
					"index":0
				},
				"metallicFactor":0,
				"roughnessFactor":0.9
			}
		},
		{
			"doubleSided":true,
			"extensions":{
				"KHR_materials_unlit":{}
			},
			"name":"zeimport_poly2_XSIPOLYCLS.pipetop1.001",
			"pbrMetallicRoughness":{
				"baseColorTexture":{
					"index":1
				},
				"metallicFactor":0,
				"roughnessFactor":0.9
			}
		},
		{
			"doubleSided":true,
			"extensions":{
				"KHR_materials_unlit":{}
			},
			"name":"zeimport_poly3_XSIPOLYCLS.pipe1.001",
			"pbrMetallicRoughness":{
				"baseColorTexture":{
					"index":2
				},
				"metallicFactor":0,
				"roughnessFactor":0.9
			}
		},
		{
			"doubleSided":true,
			"extensions":{
				"KHR_materials_unlit":{}
			},
			"name":"material_0.002",
			"pbrMetallicRoughness":{
				"baseColorTexture":{
					"index":3
				},
				"metallicFactor":0,
				"roughnessFactor":0.9
			}
		},
		{
			"doubleSided":true,
			"extensions":{
				"KHR_materials_unlit":{}
			},
			"name":"material_0.003",
			"pbrMetallicRoughness":{
				"baseColorTexture":{
					"index":4
				},
				"metallicFactor":0,
				"roughnessFactor":0.9
			}
		},
		{
			"doubleSided":true,
			"extensions":{
				"KHR_materials_unlit":{}
			},
			"name":"material_0.004",
			"pbrMetallicRoughness":{
				"baseColorTexture":{
					"index":5
				},
				"metallicFactor":0,
				"roughnessFactor":0.9
			}
		},
		{
			"doubleSided":true,
			"extensions":{
				"KHR_materials_unlit":{}
			},
			"name":"material_0.005",
			"pbrMetallicRoughness":{
				"baseColorTexture":{
					"index":6
				},
				"metallicFactor":0,
				"roughnessFactor":0.9
			}
		},
		{
			"doubleSided":true,
			"extensions":{
				"KHR_materials_unlit":{}
			},
			"name":"material_0.006",
			"pbrMetallicRoughness":{
				"baseColorTexture":{
					"index":7
				},
				"metallicFactor":0,
				"roughnessFactor":0.9
			}
		}
	],
	"meshes":[
		{
			"name":"nes_bldg_smb11_zeimport_poly5_XSIPOLYCLS.ground1_0.010",
			"primitives":[
				{
					"attributes":{
						"POSITION":0,
						"NORMAL":1,
						"TEXCOORD_0":2
					},
					"indices":3,
					"material":0
				}
			]
		},
		{
			"name":"nes_bldg_smb11_zeimport_poly5_XSIPOLYCLS.ground1_0.002",
			"primitives":[
				{
					"attributes":{
						"POSITION":4,
						"NORMAL":5,
						"TEXCOORD_0":6
					},
					"indices":7,
					"material":0
				}
			]
		},
		{
			"name":"nes_bldg_smb11_zeimport_poly5_XSIPOLYCLS.ground1_0.008",
			"primitives":[
				{
					"attributes":{
						"POSITION":8,
						"NORMAL":9,
						"TEXCOORD_0":10
					},
					"indices":11,
					"material":0
				}
			]
		},
		{
			"name":"nes_bldg_smb11_zeimport_poly5_XSIPOLYCLS.ground1_0.009",
			"primitives":[
				{
					"attributes":{
						"POSITION":12,
						"NORMAL":13,
						"TEXCOORD_0":14
					},
					"indices":15,
					"material":0
				}
			]
		},
		{
			"name":"nes_bldg_smb11_zeimport_poly2_XSIPOLYCLS.pipetop1_0.001",
			"primitives":[
				{
					"attributes":{
						"POSITION":16,
						"NORMAL":17,
						"TEXCOORD_0":18
					},
					"indices":19,
					"material":1
				},
				{
					"attributes":{
						"POSITION":20,
						"NORMAL":21,
						"TEXCOORD_0":22
					},
					"indices":23,
					"material":2
				}
			]
		},
		{
			"name":"nes_bldg_smb11_zeimport_poly5_XSIPOLYCLS.ground1_0.011",
			"primitives":[
				{
					"attributes":{
						"POSITION":24,
						"NORMAL":25,
						"TEXCOORD_0":26
					},
					"indices":3,
					"material":3
				}
			]
		},
		{
			"name":"nes_bldg_smb11_zeimport_poly5_XSIPOLYCLS.ground1_0.012",
			"primitives":[
				{
					"attributes":{
						"POSITION":27,
						"NORMAL":28,
						"TEXCOORD_0":29
					},
					"indices":30,
					"material":4
				}
			]
		},
		{
			"name":"nes_bldg_smb11_zeimport_poly5_XSIPOLYCLS.ground1_0.014",
			"primitives":[
				{
					"attributes":{
						"POSITION":31,
						"NORMAL":32,
						"TEXCOORD_0":33
					},
					"indices":34,
					"material":4
				}
			]
		},
		{
			"name":"nes_bldg_smb11_zeimport_poly5_XSIPOLYCLS.ground1_0.013",
			"primitives":[
				{
					"attributes":{
						"POSITION":35,
						"NORMAL":36,
						"TEXCOORD_0":37
					},
					"indices":3,
					"material":5
				}
			]
		},
		{
			"name":"nes_bldg_smb11_zeimport_poly5_XSIPOLYCLS.ground1_0.016",
			"primitives":[
				{
					"attributes":{
						"POSITION":38,
						"NORMAL":39,
						"TEXCOORD_0":40
					},
					"indices":41,
					"material":6
				}
			]
		},
		{
			"name":"nes_bldg_smb11_zeimport_poly5_XSIPOLYCLS.ground1_0.017",
			"primitives":[
				{
					"attributes":{
						"POSITION":42,
						"NORMAL":43,
						"TEXCOORD_0":44
					},
					"indices":41,
					"material":7
				}
			]
		}
	],
	"textures":[
		{
			"sampler":0,
			"source":0
		},
		{
			"sampler":0,
			"source":1
		},
		{
			"sampler":0,
			"source":2
		},
		{
			"sampler":0,
			"source":0
		},
		{
			"sampler":0,
			"source":0
		},
		{
			"sampler":0,
			"source":0
		},
		{
			"sampler":0,
			"source":0
		},
		{
			"sampler":0,
			"source":0
		}
	],
	"images":[
		{
			"mimeType":"image/png",
			"name":"material_0_baseColor",
			"uri":"texture_lvl_2_expanded/material_0_baseColor.png"
		},
		{
			"mimeType":"image/png",
			"name":"zeimport_poly2_XSIPOLYCLS.pipetop1_baseColor",
			"uri":"texture_lvl_2_expanded/zeimport_poly2_XSIPOLYCLS.pipetop1_baseColor.png"
		},
		{
			"mimeType":"image/png",
			"name":"zeimport_poly3_XSIPOLYCLS.pipe1_baseColor",
			"uri":"texture_lvl_2_expanded/zeimport_poly3_XSIPOLYCLS.pipe1_baseColor.png"
		}
	],
	"accessors":[
		{
			"bufferView":0,
			"componentType":5126,
			"count":718,
			"max":[
				170.27304077148438,
				2.0270259380340576,
				7.802484035491943
			],
			"min":[
				95.47467803955078,
				-0.02265400066971779,
				-0.188850998878479
			],
			"type":"VEC3"
		},
		{
			"bufferView":1,
			"componentType":5126,
			"count":718,
			"type":"VEC3"
		},
		{
			"bufferView":2,
			"componentType":5126,
			"count":718,
			"type":"VEC2"
		},
		{
			"bufferView":3,
			"componentType":5123,
			"count":1008,
			"type":"SCALAR"
		},
		{
			"bufferView":4,
			"componentType":5126,
			"count":104,
			"max":[
				24.17381477355957,
				2.0270259380340576,
				7.802484035491943
			],
			"min":[
				9.20395565032959,
				-0.02265400066971779,
				-0.188850998878479
			],
			"type":"VEC3"
		},
		{
			"bufferView":5,
			"componentType":5126,
			"count":104,
			"type":"VEC3"
		},
		{
			"bufferView":6,
			"componentType":5126,
			"count":104,
			"type":"VEC2"
		},
		{
			"bufferView":7,
			"componentType":5123,
			"count":144,
			"type":"SCALAR"
		},
		{
			"bufferView":8,
			"componentType":5126,
			"count":610,
			"max":[
				93.1885986328125,
				2.0270259380340576,
				7.802484035491943
			],
			"min":[
				27.60996437072754,
				-0.02265400066971779,
				-0.188850998878479
			],
			"type":"VEC3"
		},
		{
			"bufferView":9,
			"componentType":5126,
			"count":610,
			"type":"VEC3"
		},
		{
			"bufferView":10,
			"componentType":5126,
			"count":610,
			"type":"VEC2"
		},
		{
			"bufferView":11,
			"componentType":5123,
			"count":861,
			"type":"SCALAR"
		},
		{
			"bufferView":12,
			"componentType":5126,
			"count":685,
			"max":[
				5.067590236663818,
				2.0270259380340576,
				7.803153991699219
			],
			"min":[
				-66.27034759521484,
				-0.02265400066971779,
				-0.188850998878479
			],
			"type":"VEC3"
		},
		{
			"bufferView":13,
			"componentType":5126,
			"count":685,
			"type":"VEC3"
		},
		{
			"bufferView":14,
			"componentType":5126,
			"count":685,
			"type":"VEC2"
		},
		{
			"bufferView":15,
			"componentType":5123,
			"count":987,
			"type":"SCALAR"
		},
		{
			"bufferView":16,
			"componentType":5126,
			"count":264,
			"max":[
				-5.46054220199585,
				6.0910820960998535,
				4.992909908294678
			],
			"min":[
				-37.39955520629883,
				3.1185789108276367,
				3.0129098892211914
			],
			"type":"VEC3"
		},
		{
			"bufferView":17,
			"componentType":5126,
			"count":264,
			"type":"VEC3"
		},
		{
			"bufferView":18,
			"componentType":5126,
			"count":264,
			"type":"VEC2"
		},
		{
			"bufferView":19,
			"componentType":5123,
			"count":1152,
			"type":"SCALAR"
		},
		{
			"bufferView":20,
			"componentType":5126,
			"count":757,
			"max":[
				105.86322784423828,
				6.0910820960998535,
				4.854329586029053
			],
			"min":[
				-37.39955520629883,
				-8.300081253051758,
				2.8743295669555664
			],
			"type":"VEC3"
		},
		{
			"bufferView":21,
			"componentType":5126,
			"count":757,
			"type":"VEC3"
		},
		{
			"bufferView":22,
			"componentType":5126,
			"count":757,
			"type":"VEC2"
		},
		{
			"bufferView":23,
			"componentType":5123,
			"count":2553,
			"type":"SCALAR"
		},
		{
			"bufferView":24,
			"componentType":5126,
			"count":718,
			"max":[
				170.27304077148438,
				2.0270259380340576,
				7.802484035491943
			],
			"min":[
				95.47467803955078,
				-0.02265400066971779,
				-0.188850998878479
			],
			"type":"VEC3"
		},
		{
			"bufferView":25,
			"componentType":5126,
			"count":718,
			"type":"VEC3"
		},
		{
			"bufferView":26,
			"componentType":5126,
			"count":718,
			"type":"VEC2"
		},
		{
			"bufferView":27,
			"componentType":5126,
			"count":598,
			"max":[
				170.27304077148438,
				2.0270259380340576,
				7.802484035491943
			],
			"min":[
				95.47467803955078,
				-0.02265400066971779,
				-0.188850998878479
			],
			"type":"VEC3"
		},
		{
			"bufferView":28,
			"componentType":5126,
			"count":598,
			"type":"VEC3"
		},
		{
			"bufferView":29,
			"componentType":5126,
			"count":598,
			"type":"VEC2"
		},
		{
			"bufferView":30,
			"componentType":5123,
			"count":858,
			"type":"SCALAR"
		},
		{
			"bufferView":31,
			"componentType":5126,
			"count":124,
			"max":[
				108.13931274414062,
				2.0270259380340576,
				7.802484035491943
			],
			"min":[
				98.93563079833984,
				-0.02265400066971779,
				-0.188850998878479
			],
			"type":"VEC3"
		},
		{
			"bufferView":32,
			"componentType":5126,
			"count":124,
			"type":"VEC3"
		},
		{
			"bufferView":33,
			"componentType":5126,
			"count":124,
			"type":"VEC2"
		},
		{
			"bufferView":34,
			"componentType":5123,
			"count":180,
			"type":"SCALAR"
		},
		{
			"bufferView":35,
			"componentType":5126,
			"count":718,
			"max":[
				170.27304077148438,
				2.0270259380340576,
				7.802484035491943
			],
			"min":[
				95.47467803955078,
				-0.02265400066971779,
				-0.188850998878479
			],
			"type":"VEC3"
		},
		{
			"bufferView":36,
			"componentType":5126,
			"count":718,
			"type":"VEC3"
		},
		{
			"bufferView":37,
			"componentType":5126,
			"count":718,
			"type":"VEC2"
		},
		{
			"bufferView":38,
			"componentType":5126,
			"count":169,
			"max":[
				170.27304077148438,
				2.0270259380340576,
				7.802484035491943
			],
			"min":[
				151.80535888671875,
				-0.02265400066971779,
				-0.188850998878479
			],
			"type":"VEC3"
		},
		{
			"bufferView":39,
			"componentType":5126,
			"count":169,
			"type":"VEC3"
		},
		{
			"bufferView":40,
			"componentType":5126,
			"count":169,
			"type":"VEC2"
		},
		{
			"bufferView":41,
			"componentType":5123,
			"count":225,
			"type":"SCALAR"
		},
		{
			"bufferView":42,
			"componentType":5126,
			"count":169,
			"max":[
				170.27304077148438,
				2.0270259380340576,
				7.802484035491943
			],
			"min":[
				151.80535888671875,
				-0.02265400066971779,
				-0.188850998878479
			],
			"type":"VEC3"
		},
		{
			"bufferView":43,
			"componentType":5126,
			"count":169,
			"type":"VEC3"
		},
		{
			"bufferView":44,
			"componentType":5126,
			"count":169,
			"type":"VEC2"
		}
	],
	"bufferViews":[
		{
			"buffer":0,
			"byteLength":8616,
			"byteOffset":0,
			"target":34962
		},
		{
			"buffer":0,
			"byteLength":8616,
			"byteOffset":8616,
			"target":34962
		},
		{
			"buffer":0,
			"byteLength":5744,
			"byteOffset":17232,
			"target":34962
		},
		{
			"buffer":0,
			"byteLength":2016,
			"byteOffset":22976,
			"target":34963
		},
		{
			"buffer":0,
			"byteLength":1248,
			"byteOffset":24992,
			"target":34962
		},
		{
			"buffer":0,
			"byteLength":1248,
			"byteOffset":26240,
			"target":34962
		},
		{
			"buffer":0,
			"byteLength":832,
			"byteOffset":27488,
			"target":34962
		},
		{
			"buffer":0,
			"byteLength":288,
			"byteOffset":28320,
			"target":34963
		},
		{
			"buffer":0,
			"byteLength":7320,
			"byteOffset":28608,
			"target":34962
		},
		{
			"buffer":0,
			"byteLength":7320,
			"byteOffset":35928,
			"target":34962
		},
		{
			"buffer":0,
			"byteLength":4880,
			"byteOffset":43248,
			"target":34962
		},
		{
			"buffer":0,
			"byteLength":1722,
			"byteOffset":48128,
			"target":34963
		},
		{
			"buffer":0,
			"byteLength":8220,
			"byteOffset":49852,
			"target":34962
		},
		{
			"buffer":0,
			"byteLength":8220,
			"byteOffset":58072,
			"target":34962
		},
		{
			"buffer":0,
			"byteLength":5480,
			"byteOffset":66292,
			"target":34962
		},
		{
			"buffer":0,
			"byteLength":1974,
			"byteOffset":71772,
			"target":34963
		},
		{
			"buffer":0,
			"byteLength":3168,
			"byteOffset":73748,
			"target":34962
		},
		{
			"buffer":0,
			"byteLength":3168,
			"byteOffset":76916,
			"target":34962
		},
		{
			"buffer":0,
			"byteLength":2112,
			"byteOffset":80084,
			"target":34962
		},
		{
			"buffer":0,
			"byteLength":2304,
			"byteOffset":82196,
			"target":34963
		},
		{
			"buffer":0,
			"byteLength":9084,
			"byteOffset":84500,
			"target":34962
		},
		{
			"buffer":0,
			"byteLength":9084,
			"byteOffset":93584,
			"target":34962
		},
		{
			"buffer":0,
			"byteLength":6056,
			"byteOffset":102668,
			"target":34962
		},
		{
			"buffer":0,
			"byteLength":5106,
			"byteOffset":108724,
			"target":34963
		},
		{
			"buffer":0,
			"byteLength":8616,
			"byteOffset":113832,
			"target":34962
		},
		{
			"buffer":0,
			"byteLength":8616,
			"byteOffset":122448,
			"target":34962
		},
		{
			"buffer":0,
			"byteLength":5744,
			"byteOffset":131064,
			"target":34962
		},
		{
			"buffer":0,
			"byteLength":7176,
			"byteOffset":136808,
			"target":34962
		},
		{
			"buffer":0,
			"byteLength":7176,
			"byteOffset":143984,
			"target":34962
		},
		{
			"buffer":0,
			"byteLength":4784,
			"byteOffset":151160,
			"target":34962
		},
		{
			"buffer":0,
			"byteLength":1716,
			"byteOffset":155944,
			"target":34963
		},
		{
			"buffer":0,
			"byteLength":1488,
			"byteOffset":157660,
			"target":34962
		},
		{
			"buffer":0,
			"byteLength":1488,
			"byteOffset":159148,
			"target":34962
		},
		{
			"buffer":0,
			"byteLength":992,
			"byteOffset":160636,
			"target":34962
		},
		{
			"buffer":0,
			"byteLength":360,
			"byteOffset":161628,
			"target":34963
		},
		{
			"buffer":0,
			"byteLength":8616,
			"byteOffset":161988,
			"target":34962
		},
		{
			"buffer":0,
			"byteLength":8616,
			"byteOffset":170604,
			"target":34962
		},
		{
			"buffer":0,
			"byteLength":5744,
			"byteOffset":179220,
			"target":34962
		},
		{
			"buffer":0,
			"byteLength":2028,
			"byteOffset":184964,
			"target":34962
		},
		{
			"buffer":0,
			"byteLength":2028,
			"byteOffset":186992,
			"target":34962
		},
		{
			"buffer":0,
			"byteLength":1352,
			"byteOffset":189020,
			"target":34962
		},
		{
			"buffer":0,
			"byteLength":450,
			"byteOffset":190372,
			"target":34963
		},
		{
			"buffer":0,
			"byteLength":2028,
			"byteOffset":190824,
			"target":34962
		},
		{
			"buffer":0,
			"byteLength":2028,
			"byteOffset":192852,
			"target":34962
		},
		{
			"buffer":0,
			"byteLength":1352,
			"byteOffset":194880,
			"target":34962
		}
	],
	"samplers":[
		{
			"magFilter":9729,
			"minFilter":9987
		}
	],
	"buffers":[
		{
			"byteLength":196232,
			"uri":"level2_expanded_2nd_try.bin"
		}
	]
}
