{
	"asset":{
		"generator":"Khronos glTF Blender I/O v4.5.49",
		"version":"2.0"
	},
	"scene":0,
	"scenes":[
		{
			"name":"Scene",
			"nodes":[
				0,
				1,
				2,
				3,
				4,
				5,
				6,
				7,
				8,
				9,
				10,
				11,
				12,
				13,
				14
			]
		}
	],
	"nodes":[
		{
			"mesh":0,
			"name":"Cube",
			"translation":[
				0,
				58.9947509765625,
				0
			]
		},
		{
			"mesh":1,
			"name":"Cube.001",
			"translation":[
				-6.977818965911865,
				58.9947509765625,
				0
			]
		},
		{
			"mesh":2,
			"name":"Cube.002",
			"translation":[
				-13.618210792541504,
				58.9947509765625,
				0
			]
		},
		{
			"mesh":3,
			"name":"Cube.003",
			"scale":[
				11.615830421447754,
				11.615830421447754,
				11.615830421447754
			],
			"translation":[
				-31.132625579833984,
				0,
				17.852272033691406
			]
		},
		{
			"mesh":4,
			"name":"Cube.004",
			"rotation":[
				0.7059116363525391,
				0,
				0,
				0.7082998752593994
			],
			"scale":[
				11.615830421447754,
				11.615830421447754,
				11.615830421447754
			],
			"translation":[
				-31.132625579833984,
				51.05873489379883,
				78.57893371582031
			]
		},
		{
			"mesh":5,
			"name":"Cube.005",
			"rotation":[
				0.7059116363525391,
				0,
				0,
				0.7082998752593994
			],
			"scale":[
				11.615830421447754,
				11.615830421447754,
				11.615830421447754
			],
			"translation":[
				-31.132625579833984,
				51.05873489379883,
				-70.3675537109375
			]
		},
		{
			"mesh":6,
			"name":"Cube.006",
			"translation":[
				7.694454193115234,
				58.9947509765625,
				0
			]
		},
		{
			"mesh":7,
			"name":"Cube.007",
			"translation":[
				14.334845542907715,
				58.9947509765625,
				0
			]
		},
		{
			"mesh":8,
			"name":"Cube.008",
			"translation":[
				21.312664031982422,
				58.9947509765625,
				0
			]
		},
		{
			"mesh":9,
			"name":"Cube.009",
			"translation":[
				63.39088439941406,
				58.9947509765625,
				0
			]
		},
		{
			"mesh":10,
			"name":"Cube.010",
			"translation":[
				56.41306686401367,
				58.9947509765625,
				0
			]
		},
		{
			"mesh":11,
			"name":"Cube.011",
			"translation":[
				49.772674560546875,
				58.9947509765625,
				0
			]
		},
		{
			"mesh":12,
			"name":"Cube.012",
			"translation":[
				28.460010528564453,
				58.9947509765625,
				0
			]
		},
		{
			"mesh":13,
			"name":"Cube.013",
			"translation":[
				35.10040283203125,
				58.9947509765625,
				0
			]
		},
		{
			"mesh":14,
			"name":"Cube.014",
			"translation":[
				42.07822036743164,
				58.9947509765625,
				0
			]
		}
	],
	"materials":[
		{
			"doubleSided":true,
			"name":"Material",
			"pbrMetallicRoughness":{
				"baseColorFactor":[
					0.800000011920929,
					0.800000011920929,
					0.800000011920929,
					1
				],
				"roughnessFactor":0
			}
		},
		{
			"doubleSided":true,
			"name":"Material.001",
			"pbrMetallicRoughness":{
				"baseColorFactor":[
					0.800000011920929,
					0.800000011920929,
					0.800000011920929,
					1
				],
				"roughnessFactor":0
			}
		},
		{
			"doubleSided":true,
			"name":"Material.002",
			"pbrMetallicRoughness":{
				"baseColorFactor":[
					0.800000011920929,
					0.800000011920929,
					0.800000011920929,
					1
				],
				"roughnessFactor":0
			}
		},
		{
			"doubleSided":true,
			"name":"Material.003",
			"pbrMetallicRoughness":{
				"baseColorFactor":[
					0.800000011920929,
					0.800000011920929,
					0.800000011920929,
					1
				],
				"roughnessFactor":0
			}
		},
		{
			"doubleSided":true,
			"name":"Material.004",
			"pbrMetallicRoughness":{
				"baseColorFactor":[
					0.800000011920929,
					0.800000011920929,
					0.800000011920929,
					1
				],
				"roughnessFactor":0
			}
		},
		{
			"doubleSided":true,
			"name":"Material.005",
			"pbrMetallicRoughness":{
				"baseColorFactor":[
					0.800000011920929,
					0.800000011920929,
					0.800000011920929,
					1
				],
				"roughnessFactor":0
			}
		},
		{
			"doubleSided":true,
			"name":"Material.006",
			"pbrMetallicRoughness":{
				"baseColorFactor":[
					0.800000011920929,
					0.800000011920929,
					0.800000011920929,
					1
				],
				"roughnessFactor":0
			}
		},
		{
			"doubleSided":true,
			"name":"Material.007",
			"pbrMetallicRoughness":{
				"baseColorFactor":[
					0.800000011920929,
					0.800000011920929,
					0.800000011920929,
					1
				],
				"roughnessFactor":0
			}
		},
		{
			"doubleSided":true,
			"name":"Material.008",
			"pbrMetallicRoughness":{
				"baseColorFactor":[
					0.800000011920929,
					0.800000011920929,
					0.800000011920929,
					1
				],
				"roughnessFactor":0
			}
		},
		{
			"doubleSided":true,
			"name":"Material.009",
			"pbrMetallicRoughness":{
				"baseColorFactor":[
					0.800000011920929,
					0.800000011920929,
					0.800000011920929,
					1
				],
				"roughnessFactor":0
			}
		},
		{
			"doubleSided":true,
			"name":"Material.010",
			"pbrMetallicRoughness":{
				"baseColorFactor":[
					0.800000011920929,
					0.800000011920929,
					0.800000011920929,
					1
				],
				"roughnessFactor":0
			}
		},
		{
			"doubleSided":true,
			"name":"Material.011",
			"pbrMetallicRoughness":{
				"baseColorFactor":[
					0.800000011920929,
					0.800000011920929,
					0.800000011920929,
					1
				],
				"roughnessFactor":0
			}
		},
		{
			"doubleSided":true,
			"name":"Material.012",
			"pbrMetallicRoughness":{
				"baseColorFactor":[
					0.800000011920929,
					0.800000011920929,
					0.800000011920929,
					1
				],
				"roughnessFactor":0
			}
		},
		{
			"doubleSided":true,
			"name":"Material.013",
			"pbrMetallicRoughness":{
				"baseColorFactor":[
					0.800000011920929,
					0.800000011920929,
					0.800000011920929,
					1
				],
				"roughnessFactor":0
			}
		},
		{
			"doubleSided":true,
			"name":"Material.014",
			"pbrMetallicRoughness":{
				"baseColorFactor":[
					0.800000011920929,
					0.800000011920929,
					0.800000011920929,
					1
				],
				"roughnessFactor":0
			}
		}
	],
	"meshes":[
		{
			"name":"Cube",
			"primitives":[
				{
					"attributes":{
						"POSITION":0,
						"NORMAL":1,
						"TEXCOORD_0":2
					},
					"indices":3,
					"material":0
				}
			]
		},
		{
			"name":"Cube.001",
			"primitives":[
				{
					"attributes":{
						"POSITION":4,
						"NORMAL":5,
						"TEXCOORD_0":6
					},
					"indices":3,
					"material":1
				}
			]
		},
		{
			"name":"Cube.002",
			"primitives":[
				{
					"attributes":{
						"POSITION":7,
						"NORMAL":8,
						"TEXCOORD_0":9
					},
					"indices":3,
					"material":2
				}
			]
		},
		{
			"name":"Cube.003",
			"primitives":[
				{
					"attributes":{
						"POSITION":10,
						"NORMAL":11,
						"TEXCOORD_0":12
					},
					"indices":3,
					"material":3
				}
			]
		},
		{
			"name":"Cube.004",
			"primitives":[
				{
					"attributes":{
						"POSITION":13,
						"NORMAL":14,
						"TEXCOORD_0":15
					},
					"indices":3,
					"material":4
				}
			]
		},
		{
			"name":"Cube.005",
			"primitives":[
				{
					"attributes":{
						"POSITION":16,
						"NORMAL":17,
						"TEXCOORD_0":18
					},
					"indices":3,
					"material":5
				}
			]
		},
		{
			"name":"Cube.006",
			"primitives":[
				{
					"attributes":{
						"POSITION":19,
						"NORMAL":20,
						"TEXCOORD_0":21
					},
					"indices":3,
					"material":6
				}
			]
		},
		{
			"name":"Cube.007",
			"primitives":[
				{
					"attributes":{
						"POSITION":22,
						"NORMAL":23,
						"TEXCOORD_0":24
					},
					"indices":3,
					"material":7
				}
			]
		},
		{
			"name":"Cube.008",
			"primitives":[
				{
					"attributes":{
						"POSITION":25,
						"NORMAL":26,
						"TEXCOORD_0":27
					},
					"indices":3,
					"material":8
				}
			]
		},
		{
			"name":"Cube.009",
			"primitives":[
				{
					"attributes":{
						"POSITION":28,
						"NORMAL":29,
						"TEXCOORD_0":30
					},
					"indices":3,
					"material":9
				}
			]
		},
		{
			"name":"Cube.010",
			"primitives":[
				{
					"attributes":{
						"POSITION":31,
						"NORMAL":32,
						"TEXCOORD_0":33
					},
					"indices":3,
					"material":10
				}
			]
		},
		{
			"name":"Cube.011",
			"primitives":[
				{
					"attributes":{
						"POSITION":34,
						"NORMAL":35,
						"TEXCOORD_0":36
					},
					"indices":3,
					"material":11
				}
			]
		},
		{
			"name":"Cube.012",
			"primitives":[
				{
					"attributes":{
						"POSITION":37,
						"NORMAL":38,
						"TEXCOORD_0":39
					},
					"indices":3,
					"material":12
				}
			]
		},
		{
			"name":"Cube.013",
			"primitives":[
				{
					"attributes":{
						"POSITION":40,
						"NORMAL":41,
						"TEXCOORD_0":42
					},
					"indices":3,
					"material":13
				}
			]
		},
		{
			"name":"Cube.014",
			"primitives":[
				{
					"attributes":{
						"POSITION":43,
						"NORMAL":44,
						"TEXCOORD_0":45
					},
					"indices":3,
					"material":14
				}
			]
		}
	],
	"accessors":[
		{
			"bufferView":0,
			"componentType":5126,
			"count":32,
			"max":[
				2.4539437294006348,
				1,
				1
			],
			"min":[
				-2.6921582221984863,
				-1,
				-1
			],
			"type":"VEC3"
		},
		{
			"bufferView":1,
			"componentType":5126,
			"count":32,
			"type":"VEC3"
		},
		{
			"bufferView":2,
			"componentType":5126,
			"count":32,
			"type":"VEC2"
		},
		{
			"bufferView":3,
			"componentType":5123,
			"count":60,
			"type":"SCALAR"
		},
		{
			"bufferView":4,
			"componentType":5126,
			"count":32,
			"max":[
				2.4539437294006348,
				1,
				1
			],
			"min":[
				-2.6921582221984863,
				-1,
				-1
			],
			"type":"VEC3"
		},
		{
			"bufferView":5,
			"componentType":5126,
			"count":32,
			"type":"VEC3"
		},
		{
			"bufferView":6,
			"componentType":5126,
			"count":32,
			"type":"VEC2"
		},
		{
			"bufferView":7,
			"componentType":5126,
			"count":32,
			"max":[
				2.4539437294006348,
				1,
				1
			],
			"min":[
				-2.6921582221984863,
				-1,
				-1
			],
			"type":"VEC3"
		},
		{
			"bufferView":8,
			"componentType":5126,
			"count":32,
			"type":"VEC3"
		},
		{
			"bufferView":9,
			"componentType":5126,
			"count":32,
			"type":"VEC2"
		},
		{
			"bufferView":10,
			"componentType":5126,
			"count":32,
			"max":[
				11.909055709838867,
				-0.3749576210975647,
				4.8881306648254395
			],
			"min":[
				-2.6921582221984863,
				-0.4962390065193176,
				-8.118207931518555
			],
			"type":"VEC3"
		},
		{
			"bufferView":11,
			"componentType":5126,
			"count":32,
			"type":"VEC3"
		},
		{
			"bufferView":12,
			"componentType":5126,
			"count":32,
			"type":"VEC2"
		},
		{
			"bufferView":13,
			"componentType":5126,
			"count":32,
			"max":[
				11.909055709838867,
				-0.3749576210975647,
				4.8881306648254395
			],
			"min":[
				-2.6921582221984863,
				-0.4962390065193176,
				-8.118207931518555
			],
			"type":"VEC3"
		},
		{
			"bufferView":14,
			"componentType":5126,
			"count":32,
			"type":"VEC3"
		},
		{
			"bufferView":15,
			"componentType":5126,
			"count":32,
			"type":"VEC2"
		},
		{
			"bufferView":16,
			"componentType":5126,
			"count":32,
			"max":[
				11.909055709838867,
				-0.3749576210975647,
				4.8881306648254395
			],
			"min":[
				-2.6921582221984863,
				-0.4962390065193176,
				-8.118207931518555
			],
			"type":"VEC3"
		},
		{
			"bufferView":17,
			"componentType":5126,
			"count":32,
			"type":"VEC3"
		},
		{
			"bufferView":18,
			"componentType":5126,
			"count":32,
			"type":"VEC2"
		},
		{
			"bufferView":19,
			"componentType":5126,
			"count":32,
			"max":[
				2.4539437294006348,
				1,
				1
			],
			"min":[
				-2.6921582221984863,
				-1,
				-1
			],
			"type":"VEC3"
		},
		{
			"bufferView":20,
			"componentType":5126,
			"count":32,
			"type":"VEC3"
		},
		{
			"bufferView":21,
			"componentType":5126,
			"count":32,
			"type":"VEC2"
		},
		{
			"bufferView":22,
			"componentType":5126,
			"count":32,
			"max":[
				2.4539437294006348,
				1,
				1
			],
			"min":[
				-2.6921582221984863,
				-1,
				-1
			],
			"type":"VEC3"
		},
		{
			"bufferView":23,
			"componentType":5126,
			"count":32,
			"type":"VEC3"
		},
		{
			"bufferView":24,
			"componentType":5126,
			"count":32,
			"type":"VEC2"
		},
		{
			"bufferView":25,
			"componentType":5126,
			"count":32,
			"max":[
				2.4539437294006348,
				1,
				1
			],
			"min":[
				-2.6921582221984863,
				-1,
				-1
			],
			"type":"VEC3"
		},
		{
			"bufferView":26,
			"componentType":5126,
			"count":32,
			"type":"VEC3"
		},
		{
			"bufferView":27,
			"componentType":5126,
			"count":32,
			"type":"VEC2"
		},
		{
			"bufferView":28,
			"componentType":5126,
			"count":32,
			"max":[
				2.4539437294006348,
				1,
				1
			],
			"min":[
				-2.6921582221984863,
				-1,
				-1
			],
			"type":"VEC3"
		},
		{
			"bufferView":29,
			"componentType":5126,
			"count":32,
			"type":"VEC3"
		},
		{
			"bufferView":30,
			"componentType":5126,
			"count":32,
			"type":"VEC2"
		},
		{
			"bufferView":31,
			"componentType":5126,
			"count":32,
			"max":[
				2.4539437294006348,
				1,
				1
			],
			"min":[
				-2.6921582221984863,
				-1,
				-1
			],
			"type":"VEC3"
		},
		{
			"bufferView":32,
			"componentType":5126,
			"count":32,
			"type":"VEC3"
		},
		{
			"bufferView":33,
			"componentType":5126,
			"count":32,
			"type":"VEC2"
		},
		{
			"bufferView":34,
			"componentType":5126,
			"count":32,
			"max":[
				2.4539437294006348,
				1,
				1
			],
			"min":[
				-2.6921582221984863,
				-1,
				-1
			],
			"type":"VEC3"
		},
		{
			"bufferView":35,
			"componentType":5126,
			"count":32,
			"type":"VEC3"
		},
		{
			"bufferView":36,
			"componentType":5126,
			"count":32,
			"type":"VEC2"
		},
		{
			"bufferView":37,
			"componentType":5126,
			"count":32,
			"max":[
				2.4539437294006348,
				1,
				1
			],
			"min":[
				-2.6921582221984863,
				-1,
				-1
			],
			"type":"VEC3"
		},
		{
			"bufferView":38,
			"componentType":5126,
			"count":32,
			"type":"VEC3"
		},
		{
			"bufferView":39,
			"componentType":5126,
			"count":32,
			"type":"VEC2"
		},
		{
			"bufferView":40,
			"componentType":5126,
			"count":32,
			"max":[
				2.4539437294006348,
				1,
				1
			],
			"min":[
				-2.6921582221984863,
				-1,
				-1
			],
			"type":"VEC3"
		},
		{
			"bufferView":41,
			"componentType":5126,
			"count":32,
			"type":"VEC3"
		},
		{
			"bufferView":42,
			"componentType":5126,
			"count":32,
			"type":"VEC2"
		},
		{
			"bufferView":43,
			"componentType":5126,
			"count":32,
			"max":[
				2.4539437294006348,
				1,
				1
			],
			"min":[
				-2.6921582221984863,
				-1,
				-1
			],
			"type":"VEC3"
		},
		{
			"bufferView":44,
			"componentType":5126,
			"count":32,
			"type":"VEC3"
		},
		{
			"bufferView":45,
			"componentType":5126,
			"count":32,
			"type":"VEC2"
		}
	],
	"bufferViews":[
		{
			"buffer":0,
			"byteLength":384,
			"byteOffset":0,
			"target":34962
		},
		{
			"buffer":0,
			"byteLength":384,
			"byteOffset":384,
			"target":34962
		},
		{
			"buffer":0,
			"byteLength":256,
			"byteOffset":768,
			"target":34962
		},
		{
			"buffer":0,
			"byteLength":120,
			"byteOffset":1024,
			"target":34963
		},
		{
			"buffer":0,
			"byteLength":384,
			"byteOffset":1144,
			"target":34962
		},
		{
			"buffer":0,
			"byteLength":384,
			"byteOffset":1528,
			"target":34962
		},
		{
			"buffer":0,
			"byteLength":256,
			"byteOffset":1912,
			"target":34962
		},
		{
			"buffer":0,
			"byteLength":384,
			"byteOffset":2168,
			"target":34962
		},
		{
			"buffer":0,
			"byteLength":384,
			"byteOffset":2552,
			"target":34962
		},
		{
			"buffer":0,
			"byteLength":256,
			"byteOffset":2936,
			"target":34962
		},
		{
			"buffer":0,
			"byteLength":384,
			"byteOffset":3192,
			"target":34962
		},
		{
			"buffer":0,
			"byteLength":384,
			"byteOffset":3576,
			"target":34962
		},
		{
			"buffer":0,
			"byteLength":256,
			"byteOffset":3960,
			"target":34962
		},
		{
			"buffer":0,
			"byteLength":384,
			"byteOffset":4216,
			"target":34962
		},
		{
			"buffer":0,
			"byteLength":384,
			"byteOffset":4600,
			"target":34962
		},
		{
			"buffer":0,
			"byteLength":256,
			"byteOffset":4984,
			"target":34962
		},
		{
			"buffer":0,
			"byteLength":384,
			"byteOffset":5240,
			"target":34962
		},
		{
			"buffer":0,
			"byteLength":384,
			"byteOffset":5624,
			"target":34962
		},
		{
			"buffer":0,
			"byteLength":256,
			"byteOffset":6008,
			"target":34962
		},
		{
			"buffer":0,
			"byteLength":384,
			"byteOffset":6264,
			"target":34962
		},
		{
			"buffer":0,
			"byteLength":384,
			"byteOffset":6648,
			"target":34962
		},
		{
			"buffer":0,
			"byteLength":256,
			"byteOffset":7032,
			"target":34962
		},
		{
			"buffer":0,
			"byteLength":384,
			"byteOffset":7288,
			"target":34962
		},
		{
			"buffer":0,
			"byteLength":384,
			"byteOffset":7672,
			"target":34962
		},
		{
			"buffer":0,
			"byteLength":256,
			"byteOffset":8056,
			"target":34962
		},
		{
			"buffer":0,
			"byteLength":384,
			"byteOffset":8312,
			"target":34962
		},
		{
			"buffer":0,
			"byteLength":384,
			"byteOffset":8696,
			"target":34962
		},
		{
			"buffer":0,
			"byteLength":256,
			"byteOffset":9080,
			"target":34962
		},
		{
			"buffer":0,
			"byteLength":384,
			"byteOffset":9336,
			"target":34962
		},
		{
			"buffer":0,
			"byteLength":384,
			"byteOffset":9720,
			"target":34962
		},
		{
			"buffer":0,
			"byteLength":256,
			"byteOffset":10104,
			"target":34962
		},
		{
			"buffer":0,
			"byteLength":384,
			"byteOffset":10360,
			"target":34962
		},
		{
			"buffer":0,
			"byteLength":384,
			"byteOffset":10744,
			"target":34962
		},
		{
			"buffer":0,
			"byteLength":256,
			"byteOffset":11128,
			"target":34962
		},
		{
			"buffer":0,
			"byteLength":384,
			"byteOffset":11384,
			"target":34962
		},
		{
			"buffer":0,
			"byteLength":384,
			"byteOffset":11768,
			"target":34962
		},
		{
			"buffer":0,
			"byteLength":256,
			"byteOffset":12152,
			"target":34962
		},
		{
			"buffer":0,
			"byteLength":384,
			"byteOffset":12408,
			"target":34962
		},
		{
			"buffer":0,
			"byteLength":384,
			"byteOffset":12792,
			"target":34962
		},
		{
			"buffer":0,
			"byteLength":256,
			"byteOffset":13176,
			"target":34962
		},
		{
			"buffer":0,
			"byteLength":384,
			"byteOffset":13432,
			"target":34962
		},
		{
			"buffer":0,
			"byteLength":384,
			"byteOffset":13816,
			"target":34962
		},
		{
			"buffer":0,
			"byteLength":256,
			"byteOffset":14200,
			"target":34962
		},
		{
			"buffer":0,
			"byteLength":384,
			"byteOffset":14456,
			"target":34962
		},
		{
			"buffer":0,
			"byteLength":384,
			"byteOffset":14840,
			"target":34962
		},
		{
			"buffer":0,
			"byteLength":256,
			"byteOffset":15224,
			"target":34962
		}
	],
	"buffers":[
		{
			"byteLength":15480,
			"uri":"blender_try_updated.bin"
		}
	]
}
