{
	"asset":{
		"copyright":"nah ",
		"generator":"Khronos glTF Blender I/O v4.5.49",
		"version":"2.0"
	},
	"extensionsUsed":[
		"KHR_materials_unlit"
	],
	"scene":0,
	"scenes":[
		{
			"name":"Scene",
			"nodes":[
				7,
				11,
				16,
				21,
				26,
				31,
				35,
				41,
				46,
				51
			]
		}
	],
	"nodes":[
		{
			"mesh":0,
			"name":"nes_bldg_smb11_zeimport_poly5_XSIPOLYCLS.ground1_0.001",
			"translation":[
				-74.69103240966797,
				17.117502212524414,
				-2.788794972730102e-06
			]
		},
		{
			"mesh":1,
			"name":"nes_bldg_smb11_zeimport_poly5_XSIPOLYCLS.ground1_0.002",
			"rotation":[
				0,
				0,
				-0.7071068286895752,
				0.7071067094802856
			],
			"translation":[
				5.024247169494629,
				11.228632926940918,
				0
			]
		},
		{
			"mesh":2,
			"name":"nes_bldg_smb11_zeimport_poly5_XSIPOLYCLS.ground1_0.003",
			"translation":[
				-20.520217895507812,
				-12.924585342407227,
				2.1056821424281225e-06
			]
		},
		{
			"mesh":3,
			"name":"nes_bldg_smb11_zeimport_poly5_XSIPOLYCLS.ground1_0.004"
		},
		{
			"children":[
				0,
				1,
				2,
				3
			],
			"name":"nes_bldg_smb11.001",
			"scale":[
				100,
				99.99999237060547,
				99.99999237060547
			],
			"translation":[
				0,
				0,
				-0.0009765625
			]
		},
		{
			"children":[
				4
			],
			"name":"RootNode.001",
			"translation":[
				0,
				0,
				-0.0009765625
			]
		},
		{
			"children":[
				5
			],
			"name":"supermariobros11.fbx.001",
			"rotation":[
				0.70710688829422,
				0,
				0,
				0.7071066498756409
			],
			"scale":[
				0.009999999776482582,
				0.010000000707805157,
				0.010000000707805157
			]
		},
		{
			"children":[
				6
			],
			"name":"Sketchfab_model.001",
			"rotation":[
				-0.70710688829422,
				0,
				0,
				0.7071066498756409
			],
			"translation":[
				0,
				0,
				120.45741271972656
			]
		},
		{
			"name":"nes_bldg_smb11.002",
			"scale":[
				100,
				99.99999237060547,
				99.99999237060547
			],
			"translation":[
				0,
				0,
				-0.0009765625
			]
		},
		{
			"children":[
				8
			],
			"name":"RootNode.002",
			"translation":[
				0,
				0,
				-0.0009765625
			]
		},
		{
			"children":[
				9
			],
			"name":"supermariobros11.fbx.002",
			"rotation":[
				0.70710688829422,
				0,
				0,
				0.7071066498756409
			],
			"scale":[
				0.009999999776482582,
				0.010000000707805157,
				0.010000000707805157
			]
		},
		{
			"children":[
				10
			],
			"name":"Sketchfab_model.002",
			"rotation":[
				-0.70710688829422,
				0,
				0,
				0.7071066498756409
			],
			"translation":[
				0,
				0,
				120.74856567382812
			]
		},
		{
			"mesh":4,
			"name":"nes_bldg_smb11_zeimport_poly2_XSIPOLYCLS.pipetop1_0.001",
			"rotation":[
				0,
				-0.9999992251396179,
				0,
				0.0012338424567133188
			],
			"translation":[
				-65.91561889648438,
				0,
				7.2816925048828125
			]
		},
		{
			"children":[
				12
			],
			"name":"nes_bldg_smb11.003",
			"scale":[
				100,
				99.99999237060547,
				99.99999237060547
			]
		},
		{
			"children":[
				13
			],
			"name":"RootNode.003"
		},
		{
			"children":[
				14
			],
			"name":"supermariobros11.fbx.003",
			"rotation":[
				0.70710688829422,
				0,
				0,
				0.7071066498756409
			],
			"scale":[
				0.009999999776482582,
				0.010000000707805157,
				0.010000000707805157
			]
		},
		{
			"children":[
				15
			],
			"name":"Sketchfab_model.003",
			"rotation":[
				-0.70710688829422,
				0,
				0,
				0.7071066498756409
			],
			"translation":[
				0,
				0,
				120.88714599609375
			]
		},
		{
			"mesh":5,
			"name":"nes_bldg_smb11_zeimport_poly5_XSIPOLYCLS.ground1_0.005",
			"translation":[
				-22.812681198120117,
				-12.924585342407227,
				2.1056821424281225e-06
			]
		},
		{
			"children":[
				17
			],
			"name":"nes_bldg_smb11.004",
			"scale":[
				100,
				99.99999237060547,
				99.99999237060547
			],
			"translation":[
				0,
				0,
				-0.0009765625
			]
		},
		{
			"children":[
				18
			],
			"name":"RootNode.004",
			"translation":[
				0,
				0,
				-0.0009765625
			]
		},
		{
			"children":[
				19
			],
			"name":"supermariobros11.fbx.004",
			"rotation":[
				0.70710688829422,
				0,
				0,
				0.7071066498756409
			],
			"scale":[
				0.009999999776482582,
				0.010000000707805157,
				0.010000000707805157
			]
		},
		{
			"children":[
				20
			],
			"name":"Sketchfab_model.004",
			"rotation":[
				-0.70710688829422,
				0,
				0,
				0.7071066498756409
			],
			"translation":[
				0,
				0,
				120.45741271972656
			]
		},
		{
			"mesh":6,
			"name":"nes_bldg_smb11_zeimport_poly5_XSIPOLYCLS.ground1_0.006",
			"translation":[
				-78.52204895019531,
				-12.924586296081543,
				0
			]
		},
		{
			"children":[
				22
			],
			"name":"nes_bldg_smb11.005",
			"scale":[
				100,
				99.99999237060547,
				99.99999237060547
			],
			"translation":[
				0,
				0,
				-0.0009765625
			]
		},
		{
			"children":[
				23
			],
			"name":"RootNode.005",
			"translation":[
				0,
				0,
				-0.0009765625
			]
		},
		{
			"children":[
				24
			],
			"name":"supermariobros11.fbx.005",
			"rotation":[
				0.70710688829422,
				0,
				0,
				0.7071066498756409
			],
			"scale":[
				0.009999999776482582,
				0.010000000707805157,
				0.010000000707805157
			],
			"translation":[
				0,
				-2.0427301024028566e-06,
				0
			]
		},
		{
			"children":[
				25
			],
			"name":"Sketchfab_model.005",
			"rotation":[
				-0.70710688829422,
				0,
				0,
				0.7071066498756409
			],
			"translation":[
				0,
				15.20354175567627,
				120.45741271972656
			]
		},
		{
			"mesh":7,
			"name":"nes_bldg_smb11_zeimport_poly5_XSIPOLYCLS.ground1_0.007",
			"translation":[
				-74.69103240966797,
				17.117502212524414,
				-2.788794972730102e-06
			]
		},
		{
			"children":[
				27
			],
			"name":"nes_bldg_smb11.006",
			"scale":[
				100,
				99.99999237060547,
				99.99999237060547
			],
			"translation":[
				0,
				0,
				-0.0009765625
			]
		},
		{
			"children":[
				28
			],
			"name":"RootNode.006",
			"translation":[
				0,
				0,
				-0.0009765625
			]
		},
		{
			"children":[
				29
			],
			"name":"supermariobros11.fbx.006",
			"rotation":[
				0.70710688829422,
				0,
				0,
				0.7071066498756409
			],
			"scale":[
				0.009999999776482582,
				0.010000000707805157,
				0.010000000707805157
			]
		},
		{
			"children":[
				30
			],
			"name":"Sketchfab_model.006",
			"rotation":[
				-0.70710688829422,
				0,
				0,
				0.7071066498756409
			],
			"translation":[
				74.76757049560547,
				0,
				120.45741271972656
			]
		},
		{
			"name":"nes_bldg_smb11.007",
			"scale":[
				100,
				99.99999237060547,
				99.99999237060547
			],
			"translation":[
				-0.000244140625,
				0,
				-0.0009765625
			]
		},
		{
			"children":[
				32
			],
			"name":"RootNode.007",
			"translation":[
				-0.000244140625,
				0,
				-0.0009765625
			]
		},
		{
			"children":[
				33
			],
			"name":"supermariobros11.fbx.007",
			"rotation":[
				0.70710688829422,
				0,
				0,
				0.7071066498756409
			],
			"scale":[
				0.009999999776482582,
				0.010000000707805157,
				0.010000000707805157
			]
		},
		{
			"children":[
				34
			],
			"name":"Sketchfab_model.007",
			"rotation":[
				-0.70710688829422,
				0,
				0,
				0.7071066498756409
			],
			"translation":[
				25.613174438476562,
				0,
				120.38236999511719
			]
		},
		{
			"mesh":8,
			"name":"nes_bldg_smb11_zeimport_poly10_XSIPOLYCLS.brick_0.002",
			"translation":[
				8.278629302978516,
				0,
				0
			]
		},
		{
			"mesh":9,
			"name":"nes_bldg_smb11_zeimport_poly8_XSIPOLYCLS.brick1_0.002",
			"translation":[
				-3.814697265625e-06,
				0,
				0
			]
		},
		{
			"children":[
				36,
				37
			],
			"name":"nes_bldg_smb11.009",
			"scale":[
				100,
				99.99999237060547,
				99.99999237060547
			]
		},
		{
			"children":[
				38
			],
			"name":"RootNode.009"
		},
		{
			"children":[
				39
			],
			"name":"supermariobros11.fbx.009",
			"rotation":[
				0.70710688829422,
				0,
				0,
				0.7071066498756409
			],
			"scale":[
				0.009999999776482582,
				0.010000000707805157,
				0.010000000707805157
			],
			"translation":[
				-3.814697265625e-06,
				0,
				0
			]
		},
		{
			"children":[
				40
			],
			"name":"Sketchfab_model.009",
			"rotation":[
				-0.70710688829422,
				0,
				0,
				0.7071066498756409
			],
			"translation":[
				48.37754821777344,
				0,
				120.1791000366211
			]
		},
		{
			"mesh":10,
			"name":"nes_bldg_smb11_zeimport_poly10_XSIPOLYCLS.brick_0.003",
			"translation":[
				8.278629302978516,
				0,
				0
			]
		},
		{
			"children":[
				42
			],
			"name":"nes_bldg_smb11.010",
			"scale":[
				100,
				99.99999237060547,
				99.99999237060547
			],
			"translation":[
				0.00048828125,
				-6.103515625e-05,
				0
			]
		},
		{
			"children":[
				43
			],
			"name":"RootNode.010",
			"translation":[
				0.00048828125,
				-6.103515625e-05,
				0
			]
		},
		{
			"children":[
				44
			],
			"name":"supermariobros11.fbx.010",
			"rotation":[
				0.70710688829422,
				0,
				0,
				0.7071066498756409
			],
			"scale":[
				0.009999999776482582,
				0.010000000707805157,
				0.010000000707805157
			],
			"translation":[
				-3.814697265625e-06,
				0,
				0
			]
		},
		{
			"children":[
				45
			],
			"name":"Sketchfab_model.010",
			"rotation":[
				-0.70710688829422,
				0,
				0,
				0.7071066498756409
			],
			"translation":[
				55.54246139526367,
				5.420089244842529,
				120.1791000366211
			]
		},
		{
			"mesh":11,
			"name":"nes_bldg_smb11_zeimport_poly10_XSIPOLYCLS.brick_0.004",
			"translation":[
				8.278629302978516,
				0,
				0
			]
		},
		{
			"children":[
				47
			],
			"name":"nes_bldg_smb11.011",
			"scale":[
				100,
				99.99999237060547,
				99.99999237060547
			],
			"translation":[
				0,
				-0.0001220703125,
				0
			]
		},
		{
			"children":[
				48
			],
			"name":"RootNode.011",
			"translation":[
				0,
				-0.0001220703125,
				0
			]
		},
		{
			"children":[
				49
			],
			"name":"supermariobros11.fbx.011",
			"rotation":[
				0.70710688829422,
				0,
				0,
				0.7071066498756409
			],
			"scale":[
				0.009999999776482582,
				0.010000000707805157,
				0.010000000707805157
			],
			"translation":[
				-3.814697265625e-06,
				0,
				0
			]
		},
		{
			"children":[
				50
			],
			"name":"Sketchfab_model.011",
			"rotation":[
				-0.70710688829422,
				0,
				0,
				0.7071066498756409
			],
			"translation":[
				50.49361038208008,
				10.914426803588867,
				120.1791000366211
			]
		}
	],
	"materials":[
		{
			"doubleSided":true,
			"extensions":{
				"KHR_materials_unlit":{}
			},
			"name":"material_0.001",
			"pbrMetallicRoughness":{
				"baseColorTexture":{
					"index":0
				},
				"metallicFactor":0,
				"roughnessFactor":0.9
			}
		},
		{
			"doubleSided":true,
			"extensions":{
				"KHR_materials_unlit":{}
			},
			"name":"zeimport_poly2_XSIPOLYCLS.pipetop1.001",
			"pbrMetallicRoughness":{
				"baseColorTexture":{
					"index":1
				},
				"metallicFactor":0,
				"roughnessFactor":0.9
			}
		},
		{
			"doubleSided":true,
			"extensions":{
				"KHR_materials_unlit":{}
			},
			"name":"zeimport_poly3_XSIPOLYCLS.pipe1.001",
			"pbrMetallicRoughness":{
				"baseColorTexture":{
					"index":2
				},
				"metallicFactor":0,
				"roughnessFactor":0.9
			}
		},
		{
			"doubleSided":true,
			"extensions":{
				"KHR_materials_unlit":{}
			},
			"name":"material_0.002",
			"pbrMetallicRoughness":{
				"baseColorTexture":{
					"index":3
				},
				"metallicFactor":0,
				"roughnessFactor":0.9
			}
		},
		{
			"doubleSided":true,
			"extensions":{
				"KHR_materials_unlit":{}
			},
			"name":"material_0.003",
			"pbrMetallicRoughness":{
				"baseColorTexture":{
					"index":4
				},
				"metallicFactor":0,
				"roughnessFactor":0.9
			}
		},
		{
			"doubleSided":true,
			"extensions":{
				"KHR_materials_unlit":{}
			},
			"name":"material_0.004",
			"pbrMetallicRoughness":{
				"baseColorTexture":{
					"index":5
				},
				"metallicFactor":0,
				"roughnessFactor":0.9
			}
		},
		{
			"doubleSided":true,
			"extensions":{
				"KHR_materials_unlit":{}
			},
			"name":"zeimport_poly10_XSIPOLYCLS.brick.002",
			"pbrMetallicRoughness":{
				"baseColorTexture":{
					"index":6
				},
				"metallicFactor":0,
				"roughnessFactor":0.9
			}
		},
		{
			"doubleSided":true,
			"extensions":{
				"KHR_materials_unlit":{}
			},
			"name":"zeimport_poly8_XSIPOLYCLS.brick1.002",
			"pbrMetallicRoughness":{
				"baseColorTexture":{
					"index":7
				},
				"metallicFactor":0,
				"roughnessFactor":0.9
			}
		},
		{
			"doubleSided":true,
			"extensions":{
				"KHR_materials_unlit":{}
			},
			"name":"zeimport_poly10_XSIPOLYCLS.brick.003",
			"pbrMetallicRoughness":{
				"baseColorTexture":{
					"index":8
				},
				"metallicFactor":0,
				"roughnessFactor":0.9
			}
		},
		{
			"doubleSided":true,
			"extensions":{
				"KHR_materials_unlit":{}
			},
			"name":"zeimport_poly10_XSIPOLYCLS.brick.004",
			"pbrMetallicRoughness":{
				"baseColorTexture":{
					"index":9
				},
				"metallicFactor":0,
				"roughnessFactor":0.9
			}
		}
	],
	"meshes":[
		{
			"name":"nes_bldg_smb11_zeimport_poly5_XSIPOLYCLS.ground1_0.010",
			"primitives":[
				{
					"attributes":{
						"POSITION":0,
						"NORMAL":1,
						"TEXCOORD_0":2
					},
					"indices":3,
					"material":0
				}
			]
		},
		{
			"name":"nes_bldg_smb11_zeimport_poly5_XSIPOLYCLS.ground1_0.002",
			"primitives":[
				{
					"attributes":{
						"POSITION":4,
						"NORMAL":5,
						"TEXCOORD_0":6
					},
					"indices":7,
					"material":0
				}
			]
		},
		{
			"name":"nes_bldg_smb11_zeimport_poly5_XSIPOLYCLS.ground1_0.008",
			"primitives":[
				{
					"attributes":{
						"POSITION":8,
						"NORMAL":9,
						"TEXCOORD_0":10
					},
					"indices":11,
					"material":0
				}
			]
		},
		{
			"name":"nes_bldg_smb11_zeimport_poly5_XSIPOLYCLS.ground1_0.009",
			"primitives":[
				{
					"attributes":{
						"POSITION":12,
						"NORMAL":13,
						"TEXCOORD_0":14
					},
					"indices":15,
					"material":0
				}
			]
		},
		{
			"name":"nes_bldg_smb11_zeimport_poly2_XSIPOLYCLS.pipetop1_0.001",
			"primitives":[
				{
					"attributes":{
						"POSITION":16,
						"NORMAL":17,
						"TEXCOORD_0":18
					},
					"indices":19,
					"material":1
				},
				{
					"attributes":{
						"POSITION":20,
						"NORMAL":21,
						"TEXCOORD_0":22
					},
					"indices":23,
					"material":2
				}
			]
		},
		{
			"name":"nes_bldg_smb11_zeimport_poly5_XSIPOLYCLS.ground1_0.011",
			"primitives":[
				{
					"attributes":{
						"POSITION":24,
						"NORMAL":25,
						"TEXCOORD_0":26
					},
					"indices":3,
					"material":3
				}
			]
		},
		{
			"name":"nes_bldg_smb11_zeimport_poly5_XSIPOLYCLS.ground1_0.012",
			"primitives":[
				{
					"attributes":{
						"POSITION":27,
						"NORMAL":28,
						"TEXCOORD_0":29
					},
					"indices":3,
					"material":4
				}
			]
		},
		{
			"name":"nes_bldg_smb11_zeimport_poly5_XSIPOLYCLS.ground1_0.013",
			"primitives":[
				{
					"attributes":{
						"POSITION":30,
						"NORMAL":31,
						"TEXCOORD_0":32
					},
					"indices":3,
					"material":5
				}
			]
		},
		{
			"name":"nes_bldg_smb11_zeimport_poly10_XSIPOLYCLS.brick_0.003",
			"primitives":[
				{
					"attributes":{
						"POSITION":33,
						"NORMAL":34,
						"TEXCOORD_0":35
					},
					"indices":36,
					"material":6
				}
			]
		},
		{
			"name":"nes_bldg_smb11_zeimport_poly8_XSIPOLYCLS.brick1_0.003",
			"primitives":[
				{
					"attributes":{
						"POSITION":37,
						"NORMAL":38,
						"TEXCOORD_0":39
					},
					"indices":40,
					"material":7
				}
			]
		},
		{
			"name":"nes_bldg_smb11_zeimport_poly10_XSIPOLYCLS.brick_0.004",
			"primitives":[
				{
					"attributes":{
						"POSITION":41,
						"NORMAL":42,
						"TEXCOORD_0":43
					},
					"indices":36,
					"material":8
				}
			]
		},
		{
			"name":"nes_bldg_smb11_zeimport_poly10_XSIPOLYCLS.brick_0.005",
			"primitives":[
				{
					"attributes":{
						"POSITION":44,
						"NORMAL":45,
						"TEXCOORD_0":46
					},
					"indices":36,
					"material":9
				}
			]
		}
	],
	"textures":[
		{
			"sampler":0,
			"source":0
		},
		{
			"sampler":0,
			"source":1
		},
		{
			"sampler":0,
			"source":2
		},
		{
			"sampler":0,
			"source":0
		},
		{
			"sampler":0,
			"source":0
		},
		{
			"sampler":0,
			"source":0
		},
		{
			"sampler":0,
			"source":3
		},
		{
			"sampler":0,
			"source":3
		},
		{
			"sampler":0,
			"source":3
		},
		{
			"sampler":0,
			"source":3
		}
	],
	"images":[
		{
			"mimeType":"image/png",
			"name":"material_0_baseColor",
			"uri":"texture_lvl_2/material_0_baseColor.png"
		},
		{
			"mimeType":"image/png",
			"name":"zeimport_poly2_XSIPOLYCLS.pipetop1_baseColor",
			"uri":"texture_lvl_2/zeimport_poly2_XSIPOLYCLS.pipetop1_baseColor.png"
		},
		{
			"mimeType":"image/png",
			"name":"zeimport_poly3_XSIPOLYCLS.pipe1_baseColor",
			"uri":"texture_lvl_2/zeimport_poly3_XSIPOLYCLS.pipe1_baseColor.png"
		},
		{
			"mimeType":"image/png",
			"name":"zeimport_poly8_XSIPOLYCLS.brick1_baseColor",
			"uri":"texture_lvl_2/zeimport_poly8_XSIPOLYCLS.brick1_baseColor.png"
		}
	],
	"accessors":[
		{
			"bufferView":0,
			"componentType":5126,
			"count":718,
			"max":[
				170.27304077148438,
				2.0270259380340576,
				7.802484035491943
			],
			"min":[
				95.47467803955078,
				-0.02265400066971779,
				-0.188850998878479
			],
			"type":"VEC3"
		},
		{
			"bufferView":1,
			"componentType":5126,
			"count":718,
			"type":"VEC3"
		},
		{
			"bufferView":2,
			"componentType":5126,
			"count":718,
			"type":"VEC2"
		},
		{
			"bufferView":3,
			"componentType":5123,
			"count":1008,
			"type":"SCALAR"
		},
		{
			"bufferView":4,
			"componentType":5126,
			"count":104,
			"max":[
				24.17381477355957,
				2.0270259380340576,
				7.802484035491943
			],
			"min":[
				9.20395565032959,
				-0.02265400066971779,
				-0.188850998878479
			],
			"type":"VEC3"
		},
		{
			"bufferView":5,
			"componentType":5126,
			"count":104,
			"type":"VEC3"
		},
		{
			"bufferView":6,
			"componentType":5126,
			"count":104,
			"type":"VEC2"
		},
		{
			"bufferView":7,
			"componentType":5123,
			"count":144,
			"type":"SCALAR"
		},
		{
			"bufferView":8,
			"componentType":5126,
			"count":610,
			"max":[
				93.1885986328125,
				2.0270259380340576,
				7.802484035491943
			],
			"min":[
				27.60996437072754,
				-0.02265400066971779,
				-0.188850998878479
			],
			"type":"VEC3"
		},
		{
			"bufferView":9,
			"componentType":5126,
			"count":610,
			"type":"VEC3"
		},
		{
			"bufferView":10,
			"componentType":5126,
			"count":610,
			"type":"VEC2"
		},
		{
			"bufferView":11,
			"componentType":5123,
			"count":861,
			"type":"SCALAR"
		},
		{
			"bufferView":12,
			"componentType":5126,
			"count":685,
			"max":[
				5.067590236663818,
				2.0270259380340576,
				7.803153991699219
			],
			"min":[
				-66.27034759521484,
				-0.02265400066971779,
				-0.188850998878479
			],
			"type":"VEC3"
		},
		{
			"bufferView":13,
			"componentType":5126,
			"count":685,
			"type":"VEC3"
		},
		{
			"bufferView":14,
			"componentType":5126,
			"count":685,
			"type":"VEC2"
		},
		{
			"bufferView":15,
			"componentType":5123,
			"count":987,
			"type":"SCALAR"
		},
		{
			"bufferView":16,
			"componentType":5126,
			"count":264,
			"max":[
				-5.46054220199585,
				6.0910820960998535,
				4.992909908294678
			],
			"min":[
				-37.39955520629883,
				3.1185789108276367,
				3.0129098892211914
			],
			"type":"VEC3"
		},
		{
			"bufferView":17,
			"componentType":5126,
			"count":264,
			"type":"VEC3"
		},
		{
			"bufferView":18,
			"componentType":5126,
			"count":264,
			"type":"VEC2"
		},
		{
			"bufferView":19,
			"componentType":5123,
			"count":1152,
			"type":"SCALAR"
		},
		{
			"bufferView":20,
			"componentType":5126,
			"count":757,
			"max":[
				105.86322784423828,
				6.0910820960998535,
				4.854329586029053
			],
			"min":[
				-37.39955520629883,
				-8.300081253051758,
				2.8743295669555664
			],
			"type":"VEC3"
		},
		{
			"bufferView":21,
			"componentType":5126,
			"count":757,
			"type":"VEC3"
		},
		{
			"bufferView":22,
			"componentType":5126,
			"count":757,
			"type":"VEC2"
		},
		{
			"bufferView":23,
			"componentType":5123,
			"count":2553,
			"type":"SCALAR"
		},
		{
			"bufferView":24,
			"componentType":5126,
			"count":718,
			"max":[
				170.27304077148438,
				2.0270259380340576,
				7.802484035491943
			],
			"min":[
				95.47467803955078,
				-0.02265400066971779,
				-0.188850998878479
			],
			"type":"VEC3"
		},
		{
			"bufferView":25,
			"componentType":5126,
			"count":718,
			"type":"VEC3"
		},
		{
			"bufferView":26,
			"componentType":5126,
			"count":718,
			"type":"VEC2"
		},
		{
			"bufferView":27,
			"componentType":5126,
			"count":718,
			"max":[
				170.27304077148438,
				2.0270259380340576,
				7.802484035491943
			],
			"min":[
				95.47467803955078,
				-0.02265400066971779,
				-0.188850998878479
			],
			"type":"VEC3"
		},
		{
			"bufferView":28,
			"componentType":5126,
			"count":718,
			"type":"VEC3"
		},
		{
			"bufferView":29,
			"componentType":5126,
			"count":718,
			"type":"VEC2"
		},
		{
			"bufferView":30,
			"componentType":5126,
			"count":718,
			"max":[
				170.27304077148438,
				2.0270259380340576,
				7.802484035491943
			],
			"min":[
				95.47467803955078,
				-0.02265400066971779,
				-0.188850998878479
			],
			"type":"VEC3"
		},
		{
			"bufferView":31,
			"componentType":5126,
			"count":718,
			"type":"VEC3"
		},
		{
			"bufferView":32,
			"componentType":5126,
			"count":718,
			"type":"VEC2"
		},
		{
			"bufferView":33,
			"componentType":5126,
			"count":20,
			"max":[
				-44.65009689331055,
				6.0927839279174805,
				4.480771064758301
			],
			"min":[
				-45.64964294433594,
				5.0927839279174805,
				3.4807701110839844
			],
			"type":"VEC3"
		},
		{
			"bufferView":34,
			"componentType":5126,
			"count":20,
			"type":"VEC3"
		},
		{
			"bufferView":35,
			"componentType":5126,
			"count":20,
			"type":"VEC2"
		},
		{
			"bufferView":36,
			"componentType":5123,
			"count":30,
			"type":"SCALAR"
		},
		{
			"bufferView":37,
			"componentType":5126,
			"count":4,
			"max":[
				-44.65009689331055,
				6.0927839279174805,
				4.480771064758301
			],
			"min":[
				-45.64964294433594,
				6.0927839279174805,
				3.4807701110839844
			],
			"type":"VEC3"
		},
		{
			"bufferView":38,
			"componentType":5126,
			"count":4,
			"type":"VEC3"
		},
		{
			"bufferView":39,
			"componentType":5126,
			"count":4,
			"type":"VEC2"
		},
		{
			"bufferView":40,
			"componentType":5123,
			"count":6,
			"type":"SCALAR"
		},
		{
			"bufferView":41,
			"componentType":5126,
			"count":20,
			"max":[
				-44.65009689331055,
				6.0927839279174805,
				4.480771064758301
			],
			"min":[
				-45.64964294433594,
				5.0927839279174805,
				3.4807701110839844
			],
			"type":"VEC3"
		},
		{
			"bufferView":42,
			"componentType":5126,
			"count":20,
			"type":"VEC3"
		},
		{
			"bufferView":43,
			"componentType":5126,
			"count":20,
			"type":"VEC2"
		},
		{
			"bufferView":44,
			"componentType":5126,
			"count":20,
			"max":[
				-44.65009689331055,
				6.0927839279174805,
				4.480771064758301
			],
			"min":[
				-45.64964294433594,
				5.0927839279174805,
				3.4807701110839844
			],
			"type":"VEC3"
		},
		{
			"bufferView":45,
			"componentType":5126,
			"count":20,
			"type":"VEC3"
		},
		{
			"bufferView":46,
			"componentType":5126,
			"count":20,
			"type":"VEC2"
		}
	],
	"bufferViews":[
		{
			"buffer":0,
			"byteLength":8616,
			"byteOffset":0,
			"target":34962
		},
		{
			"buffer":0,
			"byteLength":8616,
			"byteOffset":8616,
			"target":34962
		},
		{
			"buffer":0,
			"byteLength":5744,
			"byteOffset":17232,
			"target":34962
		},
		{
			"buffer":0,
			"byteLength":2016,
			"byteOffset":22976,
			"target":34963
		},
		{
			"buffer":0,
			"byteLength":1248,
			"byteOffset":24992,
			"target":34962
		},
		{
			"buffer":0,
			"byteLength":1248,
			"byteOffset":26240,
			"target":34962
		},
		{
			"buffer":0,
			"byteLength":832,
			"byteOffset":27488,
			"target":34962
		},
		{
			"buffer":0,
			"byteLength":288,
			"byteOffset":28320,
			"target":34963
		},
		{
			"buffer":0,
			"byteLength":7320,
			"byteOffset":28608,
			"target":34962
		},
		{
			"buffer":0,
			"byteLength":7320,
			"byteOffset":35928,
			"target":34962
		},
		{
			"buffer":0,
			"byteLength":4880,
			"byteOffset":43248,
			"target":34962
		},
		{
			"buffer":0,
			"byteLength":1722,
			"byteOffset":48128,
			"target":34963
		},
		{
			"buffer":0,
			"byteLength":8220,
			"byteOffset":49852,
			"target":34962
		},
		{
			"buffer":0,
			"byteLength":8220,
			"byteOffset":58072,
			"target":34962
		},
		{
			"buffer":0,
			"byteLength":5480,
			"byteOffset":66292,
			"target":34962
		},
		{
			"buffer":0,
			"byteLength":1974,
			"byteOffset":71772,
			"target":34963
		},
		{
			"buffer":0,
			"byteLength":3168,
			"byteOffset":73748,
			"target":34962
		},
		{
			"buffer":0,
			"byteLength":3168,
			"byteOffset":76916,
			"target":34962
		},
		{
			"buffer":0,
			"byteLength":2112,
			"byteOffset":80084,
			"target":34962
		},
		{
			"buffer":0,
			"byteLength":2304,
			"byteOffset":82196,
			"target":34963
		},
		{
			"buffer":0,
			"byteLength":9084,
			"byteOffset":84500,
			"target":34962
		},
		{
			"buffer":0,
			"byteLength":9084,
			"byteOffset":93584,
			"target":34962
		},
		{
			"buffer":0,
			"byteLength":6056,
			"byteOffset":102668,
			"target":34962
		},
		{
			"buffer":0,
			"byteLength":5106,
			"byteOffset":108724,
			"target":34963
		},
		{
			"buffer":0,
			"byteLength":8616,
			"byteOffset":113832,
			"target":34962
		},
		{
			"buffer":0,
			"byteLength":8616,
			"byteOffset":122448,
			"target":34962
		},
		{
			"buffer":0,
			"byteLength":5744,
			"byteOffset":131064,
			"target":34962
		},
		{
			"buffer":0,
			"byteLength":8616,
			"byteOffset":136808,
			"target":34962
		},
		{
			"buffer":0,
			"byteLength":8616,
			"byteOffset":145424,
			"target":34962
		},
		{
			"buffer":0,
			"byteLength":5744,
			"byteOffset":154040,
			"target":34962
		},
		{
			"buffer":0,
			"byteLength":8616,
			"byteOffset":159784,
			"target":34962
		},
		{
			"buffer":0,
			"byteLength":8616,
			"byteOffset":168400,
			"target":34962
		},
		{
			"buffer":0,
			"byteLength":5744,
			"byteOffset":177016,
			"target":34962
		},
		{
			"buffer":0,
			"byteLength":240,
			"byteOffset":182760,
			"target":34962
		},
		{
			"buffer":0,
			"byteLength":240,
			"byteOffset":183000,
			"target":34962
		},
		{
			"buffer":0,
			"byteLength":160,
			"byteOffset":183240,
			"target":34962
		},
		{
			"buffer":0,
			"byteLength":60,
			"byteOffset":183400,
			"target":34963
		},
		{
			"buffer":0,
			"byteLength":48,
			"byteOffset":183460,
			"target":34962
		},
		{
			"buffer":0,
			"byteLength":48,
			"byteOffset":183508,
			"target":34962
		},
		{
			"buffer":0,
			"byteLength":32,
			"byteOffset":183556,
			"target":34962
		},
		{
			"buffer":0,
			"byteLength":12,
			"byteOffset":183588,
			"target":34963
		},
		{
			"buffer":0,
			"byteLength":240,
			"byteOffset":183600,
			"target":34962
		},
		{
			"buffer":0,
			"byteLength":240,
			"byteOffset":183840,
			"target":34962
		},
		{
			"buffer":0,
			"byteLength":160,
			"byteOffset":184080,
			"target":34962
		},
		{
			"buffer":0,
			"byteLength":240,
			"byteOffset":184240,
			"target":34962
		},
		{
			"buffer":0,
			"byteLength":240,
			"byteOffset":184480,
			"target":34962
		},
		{
			"buffer":0,
			"byteLength":160,
			"byteOffset":184720,
			"target":34962
		}
	],
	"samplers":[
		{
			"magFilter":9729,
			"minFilter":9987
		}
	],
	"buffers":[
		{
			"byteLength":184880,
			"uri":"level2_2nd_try.bin"
		}
	]
}
