{
	"asset":{
		"generator":"Khronos glTF Blender I/O v4.5.49",
		"version":"2.0"
	},
	"extensionsUsed":[
		"KHR_materials_unlit"
	],
	"scene":0,
	"scenes":[
		{
			"name":"Scene",
			"nodes":[
				7,
				11,
				16,
				21,
				27,
				32,
				36,
				40,
				44,
				48,
				53,
				58
			]
		}
	],
	"nodes":[
		{
			"mesh":0,
			"name":"nes_bldg_smb11_zeimport_poly5_XSIPOLYCLS.ground1_0.001",
			"translation":[
				-74.69103240966797,
				17.117502212524414,
				-5.006790615880163e-06
			]
		},
		{
			"mesh":1,
			"name":"nes_bldg_smb11_zeimport_poly5_XSIPOLYCLS.ground1_0.002",
			"rotation":[
				0,
				0,
				-0.7071068286895752,
				0.7071067094802856
			],
			"translation":[
				5.0242462158203125,
				11.228633880615234,
				-4.053116299473913e-06
			]
		},
		{
			"mesh":2,
			"name":"nes_bldg_smb11_zeimport_poly5_XSIPOLYCLS.ground1_0.003",
			"translation":[
				-20.520217895507812,
				-12.924586296081543,
				0
			]
		},
		{
			"mesh":3,
			"name":"nes_bldg_smb11_zeimport_poly5_XSIPOLYCLS.ground1_0.004"
		},
		{
			"children":[
				0,
				1,
				2,
				3
			],
			"name":"nes_bldg_smb11.001",
			"scale":[
				100,
				99.99999237060547,
				99.99999237060547
			],
			"translation":[
				0,
				0,
				0.000274658203125
			]
		},
		{
			"children":[
				4
			],
			"name":"RootNode.001",
			"translation":[
				0,
				0,
				0.000244140625
			]
		},
		{
			"children":[
				5
			],
			"name":"supermariobros11.fbx.001",
			"rotation":[
				0.70710688829422,
				0,
				0,
				0.7071066498756409
			],
			"scale":[
				0.009999999776482582,
				0.009999999776482582,
				0.009999999776482582
			]
		},
		{
			"children":[
				6
			],
			"name":"Sketchfab_model.001",
			"rotation":[
				-0.70710688829422,
				0,
				0,
				0.7071066498756409
			],
			"translation":[
				63.13842010498047,
				0,
				-3.8497467041015625
			]
		},
		{
			"name":"nes_bldg_smb11.002",
			"scale":[
				100,
				99.99999237060547,
				99.99999237060547
			]
		},
		{
			"children":[
				8
			],
			"name":"RootNode.002"
		},
		{
			"children":[
				9
			],
			"name":"supermariobros11.fbx.002",
			"rotation":[
				0.70710688829422,
				0,
				0,
				0.7071066498756409
			],
			"scale":[
				0.009999999776482582,
				0.009999999776482582,
				0.009999999776482582
			]
		},
		{
			"children":[
				10
			],
			"name":"Sketchfab_model.002",
			"rotation":[
				-0.70710688829422,
				0,
				0,
				0.7071066498756409
			],
			"translation":[
				63.13842010498047,
				0,
				-3.55859375
			]
		},
		{
			"mesh":4,
			"name":"nes_bldg_smb11_zeimport_poly2_XSIPOLYCLS.pipetop1_0.001",
			"rotation":[
				0,
				-0.9999992251396179,
				0,
				0.0012338426895439625
			],
			"translation":[
				-65.91561889648438,
				0,
				7.281684875488281
			]
		},
		{
			"children":[
				12
			],
			"name":"nes_bldg_smb11.003",
			"scale":[
				100,
				99.99999237060547,
				99.99999237060547
			],
			"translation":[
				0,
				0,
				-0.0001220703125
			]
		},
		{
			"children":[
				13
			],
			"name":"RootNode.003",
			"translation":[
				0,
				0,
				-9.1552734375e-05
			]
		},
		{
			"children":[
				14
			],
			"name":"supermariobros11.fbx.003",
			"rotation":[
				0.70710688829422,
				0,
				0,
				0.7071066498756409
			],
			"scale":[
				0.009999999776482582,
				0.009999999776482582,
				0.009999999776482582
			]
		},
		{
			"children":[
				15
			],
			"name":"Sketchfab_model.003",
			"rotation":[
				-0.70710688829422,
				0,
				0,
				0.7071066498756409
			],
			"translation":[
				63.13842010498047,
				0,
				-3.420013427734375
			]
		},
		{
			"mesh":5,
			"name":"nes_bldg_smb11_zeimport_poly5_XSIPOLYCLS.ground1_0.005",
			"translation":[
				-22.81268310546875,
				-12.924586296081543,
				0
			]
		},
		{
			"children":[
				17
			],
			"name":"nes_bldg_smb11.004",
			"scale":[
				100,
				99.99999237060547,
				99.99999237060547
			],
			"translation":[
				0,
				0,
				0.000274658203125
			]
		},
		{
			"children":[
				18
			],
			"name":"RootNode.004",
			"translation":[
				0,
				0,
				0.000244140625
			]
		},
		{
			"children":[
				19
			],
			"name":"supermariobros11.fbx.004",
			"rotation":[
				0.70710688829422,
				0,
				0,
				0.7071066498756409
			],
			"scale":[
				0.009999999776482582,
				0.009999999776482582,
				0.009999999776482582
			]
		},
		{
			"children":[
				20
			],
			"name":"Sketchfab_model.004",
			"rotation":[
				-0.70710688829422,
				0,
				0,
				0.7071066498756409
			],
			"translation":[
				63.13842010498047,
				0,
				-3.8497467041015625
			]
		},
		{
			"mesh":6,
			"name":"nes_bldg_smb11_zeimport_poly5_XSIPOLYCLS.ground1_0.006",
			"translation":[
				-78.52204895019531,
				-12.924586296081543,
				0
			]
		},
		{
			"mesh":7,
			"name":"nes_bldg_smb11_zeimport_poly5_XSIPOLYCLS.ground1_0.008",
			"translation":[
				-78.52204895019531,
				-12.924586296081543,
				0
			]
		},
		{
			"children":[
				22,
				23
			],
			"name":"nes_bldg_smb11.005",
			"scale":[
				100,
				99.99999237060547,
				99.99999237060547
			],
			"translation":[
				0,
				0,
				0.00027465817402116954
			]
		},
		{
			"children":[
				24
			],
			"name":"RootNode.005",
			"translation":[
				0,
				0,
				0.00024414059589616954
			]
		},
		{
			"children":[
				25
			],
			"name":"supermariobros11.fbx.005",
			"rotation":[
				0.70710688829422,
				0,
				0,
				0.7071066498756409
			],
			"scale":[
				0.009999999776482582,
				0.009999999776482582,
				0.009999999776482582
			]
		},
		{
			"children":[
				26
			],
			"name":"Sketchfab_model.005",
			"rotation":[
				-0.70710688829422,
				0,
				0,
				0.7071066498756409
			],
			"translation":[
				63.13842010498047,
				15.20354175567627,
				-3.8497467041015625
			]
		},
		{
			"mesh":8,
			"name":"nes_bldg_smb11_zeimport_poly5_XSIPOLYCLS.ground1_0.007",
			"translation":[
				-74.6910171508789,
				17.117502212524414,
				-5.006790615880163e-06
			]
		},
		{
			"children":[
				28
			],
			"name":"nes_bldg_smb11.006",
			"scale":[
				100,
				99.99999237060547,
				99.99999237060547
			],
			"translation":[
				0,
				0,
				0.000274658203125
			]
		},
		{
			"children":[
				29
			],
			"name":"RootNode.006",
			"translation":[
				0,
				0,
				0.000244140625
			]
		},
		{
			"children":[
				30
			],
			"name":"supermariobros11.fbx.006",
			"rotation":[
				0.70710688829422,
				0,
				0,
				0.7071066498756409
			],
			"scale":[
				0.009999999776482582,
				0.009999999776482582,
				0.009999999776482582
			],
			"translation":[
				1.52587890625e-05,
				0,
				0
			]
		},
		{
			"children":[
				31
			],
			"name":"Sketchfab_model.006",
			"rotation":[
				-0.70710688829422,
				0,
				0,
				0.7071066498756409
			],
			"translation":[
				137.906005859375,
				0,
				-3.8497467041015625
			]
		},
		{
			"name":"nes_bldg_smb11.007",
			"scale":[
				100,
				99.99999237060547,
				99.99999237060547
			]
		},
		{
			"children":[
				33
			],
			"name":"RootNode.007"
		},
		{
			"children":[
				34
			],
			"name":"supermariobros11.fbx.007",
			"rotation":[
				0.70710688829422,
				0,
				0,
				0.7071066498756409
			],
			"scale":[
				0.009999999776482582,
				0.009999999776482582,
				0.009999999776482582
			],
			"translation":[
				7.62939453125e-06,
				0,
				0
			]
		},
		{
			"children":[
				35
			],
			"name":"Sketchfab_model.007",
			"rotation":[
				-0.70710688829422,
				0,
				0,
				0.7071066498756409
			],
			"translation":[
				88.7516098022461,
				0,
				-3.9247894287109375
			]
		},
		{
			"name":"nes_bldg_smb11.009",
			"scale":[
				100,
				99.99999237060547,
				99.99999237060547
			],
			"translation":[
				0.0009765625,
				0,
				0
			]
		},
		{
			"children":[
				37
			],
			"name":"RootNode.009",
			"translation":[
				0.0009765625,
				0,
				0
			]
		},
		{
			"children":[
				38
			],
			"name":"supermariobros11.fbx.009",
			"rotation":[
				0.70710688829422,
				0,
				0,
				0.7071066498756409
			],
			"scale":[
				0.009999999776482582,
				0.009999999776482582,
				0.009999999776482582
			],
			"translation":[
				-7.62939453125e-06,
				0,
				0
			]
		},
		{
			"children":[
				39
			],
			"name":"Sketchfab_model.009",
			"rotation":[
				-0.70710688829422,
				0,
				0,
				0.7071066498756409
			],
			"translation":[
				111.51595306396484,
				0,
				-4.128059387207031
			]
		},
		{
			"name":"nes_bldg_smb11.010",
			"scale":[
				100,
				99.99999237060547,
				99.99999237060547
			],
			"translation":[
				0.0009765625,
				-6.103516352595761e-05,
				0
			]
		},
		{
			"children":[
				41
			],
			"name":"RootNode.010",
			"translation":[
				0,
				-6.103516352595761e-05,
				0
			]
		},
		{
			"children":[
				42
			],
			"name":"supermariobros11.fbx.010",
			"rotation":[
				0.70710688829422,
				0,
				0,
				0.7071066498756409
			],
			"scale":[
				0.009999999776482582,
				0.009999999776482582,
				0.009999999776482582
			]
		},
		{
			"children":[
				43
			],
			"name":"Sketchfab_model.010",
			"rotation":[
				-0.70710688829422,
				0,
				0,
				0.7071066498756409
			],
			"translation":[
				118.68087005615234,
				5.420089244842529,
				-4.128059387207031
			]
		},
		{
			"name":"nes_bldg_smb11.011",
			"scale":[
				100,
				99.99999237060547,
				99.99999237060547
			]
		},
		{
			"children":[
				45
			],
			"name":"RootNode.011",
			"translation":[
				0,
				-0.00012207032705191523,
				0
			]
		},
		{
			"children":[
				46
			],
			"name":"supermariobros11.fbx.011",
			"rotation":[
				0.70710688829422,
				0,
				0,
				0.7071066498756409
			],
			"scale":[
				0.009999999776482582,
				0.009999999776482582,
				0.009999999776482582
			],
			"translation":[
				-7.62939453125e-06,
				2.892398015319486e-06,
				0
			]
		},
		{
			"children":[
				47
			],
			"name":"Sketchfab_model.011",
			"rotation":[
				-0.70710688829422,
				0,
				0,
				0.7071066498756409
			],
			"translation":[
				113.63204193115234,
				10.914426803588867,
				-4.128059387207031
			]
		},
		{
			"mesh":9,
			"name":"nes_bldg_smb11_zeimport_poly5_XSIPOLYCLS.ground1_0.010",
			"rotation":[
				0,
				1,
				0,
				0
			],
			"scale":[
				-1,
				-0.995047390460968,
				-1
			],
			"translation":[
				-73.43295288085938,
				-4.822999477386475,
				-0.3309974670410156
			]
		},
		{
			"children":[
				49
			],
			"name":"nes_bldg_smb11.012",
			"scale":[
				100,
				99.99999237060547,
				99.99999237060547
			],
			"translation":[
				0,
				0,
				0.000244140625
			]
		},
		{
			"children":[
				50
			],
			"name":"RootNode.012",
			"translation":[
				0,
				0,
				0.000244140625
			]
		},
		{
			"children":[
				51
			],
			"name":"supermariobros11.fbx.012",
			"rotation":[
				0.70710688829422,
				0,
				0,
				0.7071066498756409
			],
			"scale":[
				0.009999999776482582,
				0.009999999776482582,
				0.009999999776482582
			]
		},
		{
			"children":[
				52
			],
			"name":"Sketchfab_model.012",
			"rotation":[
				-0.70710688829422,
				0,
				0,
				0.7071066498756409
			],
			"translation":[
				-14.388313293457031,
				0.08084685355424881,
				-14.76397705078125
			]
		},
		{
			"mesh":10,
			"name":"nes_bldg_smb11_zeimport_poly5_XSIPOLYCLS.ground1_0.009",
			"rotation":[
				0,
				1,
				0,
				0
			],
			"scale":[
				-1,
				-0.9663482904434204,
				-1
			],
			"translation":[
				-66.56997680664062,
				4.177555561065674,
				10.932608604431152
			]
		},
		{
			"children":[
				54
			],
			"name":"nes_bldg_smb11.013",
			"scale":[
				100,
				99.99999237060547,
				99.99999237060547
			],
			"translation":[
				0,
				0,
				0.000244140625
			]
		},
		{
			"children":[
				55
			],
			"name":"RootNode.013",
			"translation":[
				0,
				0,
				0.000244140625
			]
		},
		{
			"children":[
				56
			],
			"name":"supermariobros11.fbx.013",
			"rotation":[
				0.70710688829422,
				0,
				0,
				0.7071066498756409
			],
			"scale":[
				0.009999999776482582,
				0.009999999776482582,
				0.009999999776482582
			]
		},
		{
			"children":[
				57
			],
			"name":"Sketchfab_model.013",
			"rotation":[
				-0.70710688829422,
				0,
				0,
				0.7071066498756409
			],
			"translation":[
				-14.388313293457031,
				0.08084685355424881,
				-14.76397705078125
			]
		}
	],
	"materials":[
		{
			"doubleSided":true,
			"extensions":{
				"KHR_materials_unlit":{}
			},
			"name":"material_0.001",
			"pbrMetallicRoughness":{
				"baseColorTexture":{
					"index":0
				},
				"metallicFactor":0,
				"roughnessFactor":0.9
			}
		},
		{
			"doubleSided":true,
			"extensions":{
				"KHR_materials_unlit":{}
			},
			"name":"zeimport_poly2_XSIPOLYCLS.pipetop1.001",
			"pbrMetallicRoughness":{
				"baseColorTexture":{
					"index":1
				},
				"metallicFactor":0,
				"roughnessFactor":0.9
			}
		},
		{
			"doubleSided":true,
			"extensions":{
				"KHR_materials_unlit":{}
			},
			"name":"zeimport_poly3_XSIPOLYCLS.pipe1.001",
			"pbrMetallicRoughness":{
				"baseColorTexture":{
					"index":2
				},
				"metallicFactor":0,
				"roughnessFactor":0.9
			}
		},
		{
			"doubleSided":true,
			"extensions":{
				"KHR_materials_unlit":{}
			},
			"name":"material_0.002",
			"pbrMetallicRoughness":{
				"baseColorTexture":{
					"index":3
				},
				"metallicFactor":0,
				"roughnessFactor":0.9
			}
		},
		{
			"doubleSided":true,
			"extensions":{
				"KHR_materials_unlit":{}
			},
			"name":"material_0.003",
			"pbrMetallicRoughness":{
				"baseColorTexture":{
					"index":4
				},
				"metallicFactor":0,
				"roughnessFactor":0.9
			}
		},
		{
			"doubleSided":true,
			"extensions":{
				"KHR_materials_unlit":{}
			},
			"name":"material_0.004",
			"pbrMetallicRoughness":{
				"baseColorTexture":{
					"index":5
				},
				"metallicFactor":0,
				"roughnessFactor":0.9
			}
		},
		{
			"doubleSided":true,
			"extensions":{
				"KHR_materials_unlit":{}
			},
			"name":"material_0.005",
			"pbrMetallicRoughness":{
				"baseColorTexture":{
					"index":6
				},
				"metallicFactor":0,
				"roughnessFactor":0.9
			}
		},
		{
			"doubleSided":true,
			"extensions":{
				"KHR_materials_unlit":{}
			},
			"name":"material_0.006",
			"pbrMetallicRoughness":{
				"baseColorTexture":{
					"index":7
				},
				"metallicFactor":0,
				"roughnessFactor":0.9
			}
		}
	],
	"meshes":[
		{
			"name":"nes_bldg_smb11_zeimport_poly5_XSIPOLYCLS.ground1_0.010",
			"primitives":[
				{
					"attributes":{
						"POSITION":0,
						"NORMAL":1,
						"TEXCOORD_0":2
					},
					"indices":3,
					"material":0
				}
			]
		},
		{
			"name":"nes_bldg_smb11_zeimport_poly5_XSIPOLYCLS.ground1_0.002",
			"primitives":[
				{
					"attributes":{
						"POSITION":4,
						"NORMAL":5,
						"TEXCOORD_0":6
					},
					"indices":7,
					"material":0
				}
			]
		},
		{
			"name":"nes_bldg_smb11_zeimport_poly5_XSIPOLYCLS.ground1_0.008",
			"primitives":[
				{
					"attributes":{
						"POSITION":8,
						"NORMAL":9,
						"TEXCOORD_0":10
					},
					"indices":11,
					"material":0
				}
			]
		},
		{
			"name":"nes_bldg_smb11_zeimport_poly5_XSIPOLYCLS.ground1_0.009",
			"primitives":[
				{
					"attributes":{
						"POSITION":12,
						"NORMAL":13,
						"TEXCOORD_0":14
					},
					"indices":15,
					"material":0
				}
			]
		},
		{
			"name":"nes_bldg_smb11_zeimport_poly2_XSIPOLYCLS.pipetop1_0.001",
			"primitives":[
				{
					"attributes":{
						"POSITION":16,
						"NORMAL":17,
						"TEXCOORD_0":18
					},
					"indices":19,
					"material":1
				},
				{
					"attributes":{
						"POSITION":20,
						"NORMAL":21,
						"TEXCOORD_0":22
					},
					"indices":23,
					"material":2
				}
			]
		},
		{
			"name":"nes_bldg_smb11_zeimport_poly5_XSIPOLYCLS.ground1_0.011",
			"primitives":[
				{
					"attributes":{
						"POSITION":24,
						"NORMAL":25,
						"TEXCOORD_0":26
					},
					"indices":3,
					"material":3
				}
			]
		},
		{
			"name":"nes_bldg_smb11_zeimport_poly5_XSIPOLYCLS.ground1_0.012",
			"primitives":[
				{
					"attributes":{
						"POSITION":27,
						"NORMAL":28,
						"TEXCOORD_0":29
					},
					"indices":30,
					"material":4
				}
			]
		},
		{
			"name":"nes_bldg_smb11_zeimport_poly5_XSIPOLYCLS.ground1_0.014",
			"primitives":[
				{
					"attributes":{
						"POSITION":31,
						"NORMAL":32,
						"TEXCOORD_0":33
					},
					"indices":34,
					"material":4
				}
			]
		},
		{
			"name":"nes_bldg_smb11_zeimport_poly5_XSIPOLYCLS.ground1_0.013",
			"primitives":[
				{
					"attributes":{
						"POSITION":35,
						"NORMAL":36,
						"TEXCOORD_0":37
					},
					"indices":3,
					"material":5
				}
			]
		},
		{
			"name":"nes_bldg_smb11_zeimport_poly5_XSIPOLYCLS.ground1_0.016",
			"primitives":[
				{
					"attributes":{
						"POSITION":38,
						"NORMAL":39,
						"TEXCOORD_0":40
					},
					"indices":41,
					"material":6
				}
			]
		},
		{
			"name":"nes_bldg_smb11_zeimport_poly5_XSIPOLYCLS.ground1_0.017",
			"primitives":[
				{
					"attributes":{
						"POSITION":42,
						"NORMAL":43,
						"TEXCOORD_0":44
					},
					"indices":41,
					"material":7
				}
			]
		}
	],
	"textures":[
		{
			"sampler":0,
			"source":0
		},
		{
			"sampler":0,
			"source":1
		},
		{
			"sampler":0,
			"source":2
		},
		{
			"sampler":0,
			"source":0
		},
		{
			"sampler":0,
			"source":0
		},
		{
			"sampler":0,
			"source":0
		},
		{
			"sampler":0,
			"source":0
		},
		{
			"sampler":0,
			"source":0
		}
	],
	"images":[
		{
			"mimeType":"image/png",
			"name":"material_0_baseColor",
			"uri":"textures/material_0_baseColor.png"
		},
		{
			"mimeType":"image/png",
			"name":"zeimport_poly2_XSIPOLYCLS.pipetop1_baseColor",
			"uri":"textures/zeimport_poly2_XSIPOLYCLS.pipetop1_baseColor.png"
		},
		{
			"mimeType":"image/png",
			"name":"zeimport_poly3_XSIPOLYCLS.pipe1_baseColor",
			"uri":"textures/zeimport_poly3_XSIPOLYCLS.pipe1_baseColor.png"
		}
	],
	"accessors":[
		{
			"bufferView":0,
			"componentType":5126,
			"count":721,
			"max":[
				170.27304077148438,
				2.0270259380340576,
				7.802484035491943
			],
			"min":[
				95.47467803955078,
				-0.02265400066971779,
				-0.188850998878479
			],
			"type":"VEC3"
		},
		{
			"bufferView":1,
			"componentType":5126,
			"count":721,
			"type":"VEC3"
		},
		{
			"bufferView":2,
			"componentType":5126,
			"count":721,
			"type":"VEC2"
		},
		{
			"bufferView":3,
			"componentType":5123,
			"count":1008,
			"type":"SCALAR"
		},
		{
			"bufferView":4,
			"componentType":5126,
			"count":104,
			"max":[
				24.17381477355957,
				2.0270259380340576,
				7.802484035491943
			],
			"min":[
				9.20395565032959,
				-0.02265400066971779,
				-0.188850998878479
			],
			"type":"VEC3"
		},
		{
			"bufferView":5,
			"componentType":5126,
			"count":104,
			"type":"VEC3"
		},
		{
			"bufferView":6,
			"componentType":5126,
			"count":104,
			"type":"VEC2"
		},
		{
			"bufferView":7,
			"componentType":5123,
			"count":144,
			"type":"SCALAR"
		},
		{
			"bufferView":8,
			"componentType":5126,
			"count":614,
			"max":[
				93.1885986328125,
				2.0270259380340576,
				7.802484035491943
			],
			"min":[
				27.60996437072754,
				-0.02265400066971779,
				-0.188850998878479
			],
			"type":"VEC3"
		},
		{
			"bufferView":9,
			"componentType":5126,
			"count":614,
			"type":"VEC3"
		},
		{
			"bufferView":10,
			"componentType":5126,
			"count":614,
			"type":"VEC2"
		},
		{
			"bufferView":11,
			"componentType":5123,
			"count":861,
			"type":"SCALAR"
		},
		{
			"bufferView":12,
			"componentType":5126,
			"count":687,
			"max":[
				5.067590236663818,
				2.0270259380340576,
				7.803153991699219
			],
			"min":[
				-66.27034759521484,
				-0.02265400066971779,
				-0.188850998878479
			],
			"type":"VEC3"
		},
		{
			"bufferView":13,
			"componentType":5126,
			"count":687,
			"type":"VEC3"
		},
		{
			"bufferView":14,
			"componentType":5126,
			"count":687,
			"type":"VEC2"
		},
		{
			"bufferView":15,
			"componentType":5123,
			"count":987,
			"type":"SCALAR"
		},
		{
			"bufferView":16,
			"componentType":5126,
			"count":264,
			"max":[
				-5.46054220199585,
				6.0910820960998535,
				4.992909908294678
			],
			"min":[
				-37.39955520629883,
				3.1185789108276367,
				3.0129098892211914
			],
			"type":"VEC3"
		},
		{
			"bufferView":17,
			"componentType":5126,
			"count":264,
			"type":"VEC3"
		},
		{
			"bufferView":18,
			"componentType":5126,
			"count":264,
			"type":"VEC2"
		},
		{
			"bufferView":19,
			"componentType":5123,
			"count":1152,
			"type":"SCALAR"
		},
		{
			"bufferView":20,
			"componentType":5126,
			"count":757,
			"max":[
				105.86322784423828,
				6.0910820960998535,
				4.854329586029053
			],
			"min":[
				-37.39955520629883,
				-8.300081253051758,
				2.8743295669555664
			],
			"type":"VEC3"
		},
		{
			"bufferView":21,
			"componentType":5126,
			"count":757,
			"type":"VEC3"
		},
		{
			"bufferView":22,
			"componentType":5126,
			"count":757,
			"type":"VEC2"
		},
		{
			"bufferView":23,
			"componentType":5123,
			"count":2553,
			"type":"SCALAR"
		},
		{
			"bufferView":24,
			"componentType":5126,
			"count":721,
			"max":[
				170.27304077148438,
				2.0270259380340576,
				7.802484035491943
			],
			"min":[
				95.47467803955078,
				-0.02265400066971779,
				-0.188850998878479
			],
			"type":"VEC3"
		},
		{
			"bufferView":25,
			"componentType":5126,
			"count":721,
			"type":"VEC3"
		},
		{
			"bufferView":26,
			"componentType":5126,
			"count":721,
			"type":"VEC2"
		},
		{
			"bufferView":27,
			"componentType":5126,
			"count":601,
			"max":[
				170.27304077148438,
				2.0270259380340576,
				7.802484035491943
			],
			"min":[
				95.47467803955078,
				-0.02265400066971779,
				-0.188850998878479
			],
			"type":"VEC3"
		},
		{
			"bufferView":28,
			"componentType":5126,
			"count":601,
			"type":"VEC3"
		},
		{
			"bufferView":29,
			"componentType":5126,
			"count":601,
			"type":"VEC2"
		},
		{
			"bufferView":30,
			"componentType":5123,
			"count":858,
			"type":"SCALAR"
		},
		{
			"bufferView":31,
			"componentType":5126,
			"count":124,
			"max":[
				108.13931274414062,
				2.0270259380340576,
				7.802484035491943
			],
			"min":[
				98.93563079833984,
				-0.02265400066971779,
				-0.188850998878479
			],
			"type":"VEC3"
		},
		{
			"bufferView":32,
			"componentType":5126,
			"count":124,
			"type":"VEC3"
		},
		{
			"bufferView":33,
			"componentType":5126,
			"count":124,
			"type":"VEC2"
		},
		{
			"bufferView":34,
			"componentType":5123,
			"count":180,
			"type":"SCALAR"
		},
		{
			"bufferView":35,
			"componentType":5126,
			"count":721,
			"max":[
				170.27304077148438,
				2.0270259380340576,
				7.802484035491943
			],
			"min":[
				95.47467803955078,
				-0.02265400066971779,
				-0.188850998878479
			],
			"type":"VEC3"
		},
		{
			"bufferView":36,
			"componentType":5126,
			"count":721,
			"type":"VEC3"
		},
		{
			"bufferView":37,
			"componentType":5126,
			"count":721,
			"type":"VEC2"
		},
		{
			"bufferView":38,
			"componentType":5126,
			"count":169,
			"max":[
				170.27304077148438,
				2.0270259380340576,
				7.802484035491943
			],
			"min":[
				151.80535888671875,
				-0.02265400066971779,
				-0.188850998878479
			],
			"type":"VEC3"
		},
		{
			"bufferView":39,
			"componentType":5126,
			"count":169,
			"type":"VEC3"
		},
		{
			"bufferView":40,
			"componentType":5126,
			"count":169,
			"type":"VEC2"
		},
		{
			"bufferView":41,
			"componentType":5123,
			"count":225,
			"type":"SCALAR"
		},
		{
			"bufferView":42,
			"componentType":5126,
			"count":169,
			"max":[
				170.27304077148438,
				2.0270259380340576,
				7.802484035491943
			],
			"min":[
				151.80535888671875,
				-0.02265400066971779,
				-0.188850998878479
			],
			"type":"VEC3"
		},
		{
			"bufferView":43,
			"componentType":5126,
			"count":169,
			"type":"VEC3"
		},
		{
			"bufferView":44,
			"componentType":5126,
			"count":169,
			"type":"VEC2"
		}
	],
	"bufferViews":[
		{
			"buffer":0,
			"byteLength":8652,
			"byteOffset":0,
			"target":34962
		},
		{
			"buffer":0,
			"byteLength":8652,
			"byteOffset":8652,
			"target":34962
		},
		{
			"buffer":0,
			"byteLength":5768,
			"byteOffset":17304,
			"target":34962
		},
		{
			"buffer":0,
			"byteLength":2016,
			"byteOffset":23072,
			"target":34963
		},
		{
			"buffer":0,
			"byteLength":1248,
			"byteOffset":25088,
			"target":34962
		},
		{
			"buffer":0,
			"byteLength":1248,
			"byteOffset":26336,
			"target":34962
		},
		{
			"buffer":0,
			"byteLength":832,
			"byteOffset":27584,
			"target":34962
		},
		{
			"buffer":0,
			"byteLength":288,
			"byteOffset":28416,
			"target":34963
		},
		{
			"buffer":0,
			"byteLength":7368,
			"byteOffset":28704,
			"target":34962
		},
		{
			"buffer":0,
			"byteLength":7368,
			"byteOffset":36072,
			"target":34962
		},
		{
			"buffer":0,
			"byteLength":4912,
			"byteOffset":43440,
			"target":34962
		},
		{
			"buffer":0,
			"byteLength":1722,
			"byteOffset":48352,
			"target":34963
		},
		{
			"buffer":0,
			"byteLength":8244,
			"byteOffset":50076,
			"target":34962
		},
		{
			"buffer":0,
			"byteLength":8244,
			"byteOffset":58320,
			"target":34962
		},
		{
			"buffer":0,
			"byteLength":5496,
			"byteOffset":66564,
			"target":34962
		},
		{
			"buffer":0,
			"byteLength":1974,
			"byteOffset":72060,
			"target":34963
		},
		{
			"buffer":0,
			"byteLength":3168,
			"byteOffset":74036,
			"target":34962
		},
		{
			"buffer":0,
			"byteLength":3168,
			"byteOffset":77204,
			"target":34962
		},
		{
			"buffer":0,
			"byteLength":2112,
			"byteOffset":80372,
			"target":34962
		},
		{
			"buffer":0,
			"byteLength":2304,
			"byteOffset":82484,
			"target":34963
		},
		{
			"buffer":0,
			"byteLength":9084,
			"byteOffset":84788,
			"target":34962
		},
		{
			"buffer":0,
			"byteLength":9084,
			"byteOffset":93872,
			"target":34962
		},
		{
			"buffer":0,
			"byteLength":6056,
			"byteOffset":102956,
			"target":34962
		},
		{
			"buffer":0,
			"byteLength":5106,
			"byteOffset":109012,
			"target":34963
		},
		{
			"buffer":0,
			"byteLength":8652,
			"byteOffset":114120,
			"target":34962
		},
		{
			"buffer":0,
			"byteLength":8652,
			"byteOffset":122772,
			"target":34962
		},
		{
			"buffer":0,
			"byteLength":5768,
			"byteOffset":131424,
			"target":34962
		},
		{
			"buffer":0,
			"byteLength":7212,
			"byteOffset":137192,
			"target":34962
		},
		{
			"buffer":0,
			"byteLength":7212,
			"byteOffset":144404,
			"target":34962
		},
		{
			"buffer":0,
			"byteLength":4808,
			"byteOffset":151616,
			"target":34962
		},
		{
			"buffer":0,
			"byteLength":1716,
			"byteOffset":156424,
			"target":34963
		},
		{
			"buffer":0,
			"byteLength":1488,
			"byteOffset":158140,
			"target":34962
		},
		{
			"buffer":0,
			"byteLength":1488,
			"byteOffset":159628,
			"target":34962
		},
		{
			"buffer":0,
			"byteLength":992,
			"byteOffset":161116,
			"target":34962
		},
		{
			"buffer":0,
			"byteLength":360,
			"byteOffset":162108,
			"target":34963
		},
		{
			"buffer":0,
			"byteLength":8652,
			"byteOffset":162468,
			"target":34962
		},
		{
			"buffer":0,
			"byteLength":8652,
			"byteOffset":171120,
			"target":34962
		},
		{
			"buffer":0,
			"byteLength":5768,
			"byteOffset":179772,
			"target":34962
		},
		{
			"buffer":0,
			"byteLength":2028,
			"byteOffset":185540,
			"target":34962
		},
		{
			"buffer":0,
			"byteLength":2028,
			"byteOffset":187568,
			"target":34962
		},
		{
			"buffer":0,
			"byteLength":1352,
			"byteOffset":189596,
			"target":34962
		},
		{
			"buffer":0,
			"byteLength":450,
			"byteOffset":190948,
			"target":34963
		},
		{
			"buffer":0,
			"byteLength":2028,
			"byteOffset":191400,
			"target":34962
		},
		{
			"buffer":0,
			"byteLength":2028,
			"byteOffset":193428,
			"target":34962
		},
		{
			"buffer":0,
			"byteLength":1352,
			"byteOffset":195456,
			"target":34962
		}
	],
	"samplers":[
		{
			"magFilter":9729,
			"minFilter":9987
		}
	],
	"buffers":[
		{
			"byteLength":196808,
			"uri":"lvl2.bin"
		}
	]
}
